<svg width="24" height="24" viewBox="0 0 24 24" xmlns="http://www.w3.org/2000/svg">
<path  d="M7.75011 4C5.67898 4 4 5.67898 4 7.75011V16.2503C4 18.3215 5.67898 20.0004 7.75011 20.0004H16.2503C18.3215 20.0004 20.0004 18.3215 20.0004 16.2503V7.75011C20.0004 5.67898 18.3215 4 16.2503 4H7.75011ZM3 7.75011C3 5.1267 5.1267 3 7.75011 3H16.2503C18.8737 3 21.0004 5.1267 21.0004 7.75011V16.2503C21.0004 18.8737 18.8737 21.0004 16.2503 21.0004H7.75011C5.1267 21.0004 3 18.8737 3 16.2503V7.75011ZM12.4622 9.09451C11.8588 9.00504 11.2425 9.1081 10.7011 9.38905C10.1596 9.66999 9.72057 10.1145 9.44633 10.6594C9.17208 11.2043 9.07662 11.8217 9.17353 12.424C9.27044 13.0262 9.55478 13.5826 9.98611 14.0139C10.4174 14.4452 10.9738 14.7296 11.576 14.8265C12.1783 14.9234 12.7958 14.8279 13.3406 14.5537C13.8855 14.2794 14.33 13.8404 14.611 13.2989C14.8919 12.7575 14.995 12.1412 14.9055 11.5378C14.8142 10.9223 14.5274 10.3525 14.0875 9.91256C13.6475 9.47259 13.0777 9.18578 12.4622 9.09451ZM10.2405 8.50142C10.9687 8.1236 11.7974 7.985 12.6089 8.10533C13.4366 8.22807 14.2029 8.61377 14.7946 9.20545C15.3862 9.79714 15.7719 10.5634 15.8947 11.3912C16.015 12.2026 15.8764 13.0314 15.4986 13.7595C15.1208 14.4876 14.523 15.0781 13.7902 15.4469C13.0575 15.8157 12.2271 15.9441 11.4172 15.8138C10.6073 15.6835 9.85907 15.3011 9.27901 14.721C8.69895 14.1409 8.31656 13.3928 8.18623 12.5828C8.0559 11.7729 8.18428 10.9425 8.55309 10.2098C8.9219 9.47704 9.51238 8.87924 10.2405 8.50142ZM16.6751 6.82489C16.399 6.82489 16.1751 7.04875 16.1751 7.32489C16.1751 7.60103 16.399 7.82489 16.6751 7.82489H16.6837C16.9598 7.82489 17.1837 7.60103 17.1837 7.32489C17.1837 7.04875 16.9598 6.82489 16.6837 6.82489H16.6751Z" stroke-opacity="0.5" />
</svg>
