<svg width="24" height="24" viewBox="0 0 24 24" fill="none" xmlns="http://www.w3.org/2000/svg">
<path fill-rule="evenodd" clip-rule="evenodd" d="M6.8971 5.85041C8.11543 4.66721 9.77087 4 11.5 4C13.2291 4 14.8845 4.66721 16.1029 5.85041C17.3207 7.03313 18.0021 8.63406 18.0021 10.3002C18.0021 12.6473 16.3724 15.0739 14.6322 16.9753C13.7747 17.9121 12.9156 18.6944 12.2703 19.2428C11.9518 19.5134 11.6863 19.7263 11.5 19.8719C11.3136 19.7263 11.0481 19.5134 10.7297 19.2428C10.0843 18.6944 9.22522 17.9121 8.36777 16.9753C6.6275 15.0739 4.99789 12.6473 4.99789 10.3002C4.99789 8.63406 5.67927 7.03313 6.8971 5.85041ZM11.2053 20.9044C11.2055 20.9045 11.2056 20.9046 11.5 20.5004L11.2056 20.9046C11.381 21.0324 11.6189 21.0324 11.7944 20.9046L11.5 20.5004C11.7944 20.9046 11.7945 20.9045 11.7946 20.9044L11.795 20.9041L11.7964 20.9031L11.8009 20.8998L11.8175 20.8875C11.8318 20.877 11.8525 20.8615 11.8793 20.8414C11.9328 20.8012 12.0103 20.7421 12.1085 20.6655C12.3047 20.5123 12.5837 20.2888 12.9178 20.0049C13.5854 19.4376 14.4768 18.6262 15.3698 17.6504C17.1306 15.7267 19.0021 13.0531 19.0021 10.3002C19.0021 8.35925 18.208 6.50088 16.7995 5.13304C15.3916 3.76568 13.485 3 11.5 3C9.51494 3 7.60837 3.76568 6.20041 5.13304C4.79195 6.50088 3.99789 8.35925 3.99789 10.3002C3.99789 13.0531 5.86933 15.7267 7.6301 17.6504C8.52317 18.6262 9.4146 19.4376 10.0821 20.0049C10.4163 20.2888 10.6952 20.5123 10.8915 20.6655C10.9896 20.7421 11.0672 20.8012 11.1207 20.8414C11.1474 20.8615 11.1681 20.877 11.1824 20.8875L11.199 20.8998L11.2036 20.9031L11.2049 20.9041L11.2053 20.9044ZM9.37419 10.2999C9.37419 9.18141 10.312 8.24988 11.5 8.24988C12.6879 8.24988 13.6258 9.18141 13.6258 10.2999C13.6258 11.4185 12.6879 12.35 11.5 12.35C10.312 12.35 9.37419 11.4185 9.37419 10.2999ZM11.5 7.24988C9.78754 7.24988 8.37419 8.60175 8.37419 10.2999C8.37419 11.9981 9.78754 13.35 11.5 13.35C13.2124 13.35 14.6258 11.9981 14.6258 10.2999C14.6258 8.60175 13.2124 7.24988 11.5 7.24988Z" fill="#303030"/>
</svg>
