<svg width="24" height="24" viewBox="0 0 24 24"  xmlns="http://www.w3.org/2000/svg">
<path fill-rule="evenodd" clip-rule="evenodd" d="M3.00007 6.37546C3.00007 5.62198 3.62076 5 4.40029 5H19.6021C20.3816 5 21.0023 5.62198 21.0023 6.37546V7.03656L12.7168 12.233L12.7156 12.2337C12.5019 12.3656 12.2543 12.4358 12.0012 12.4358C11.7481 12.4358 11.5005 12.3656 11.2868 12.2337L11.2855 12.233L3.00007 7.03656V6.37546ZM2.00007 7.30456C1.99998 7.30999 1.99998 7.31542 2.00007 7.32084V17.6282C2.00007 18.9463 3.08089 20.0037 4.40029 20.0037H19.6021C20.9215 20.0037 22.0023 18.9463 22.0023 17.6282V7.32082C22.0024 7.31541 22.0024 7.31 22.0023 7.30459V6.37546C22.0023 5.05736 20.9215 4 19.6021 4H4.40029C3.08089 4 2.00007 5.05736 2.00007 6.37546V7.30456ZM21.0023 8.21696V17.6282C21.0023 18.3817 20.3816 19.0037 19.6021 19.0037H4.40029C3.62076 19.0037 3.00007 18.3817 3.00007 17.6282V8.21696L10.7569 13.0818L10.7569 13.0818L10.7596 13.0835C11.1323 13.3139 11.5625 13.4358 12.0012 13.4358C12.4399 13.4358 12.8701 13.3139 13.2428 13.0835L13.2428 13.0835L13.2455 13.0818L21.0023 8.21696Z" fill=""/>
</svg>
