<svg width="173" height="40" viewBox="0 0 173 40" fill="none" xmlns="http://www.w3.org/2000/svg">
<mask id="mask0_3002_236" style="mask-type:luminance" maskUnits="userSpaceOnUse" x="0" y="0" width="173" height="40">
<path d="M173 0H0V40H173V0Z" fill="white"/>
</mask>
<g mask="url(#mask0_3002_236)">
<path d="M49.2158 15.5757H54.2558C55.0665 15.5757 55.7278 15.693 56.2398 15.9277C56.7518 16.1624 57.1465 16.4557 57.4238 16.8077C57.7011 17.1597 57.8878 17.5437 57.9838 17.9597C58.0905 18.3757 58.1438 18.7597 58.1438 19.1117C58.1438 19.4637 58.0905 19.8477 57.9838 20.2637C57.8878 20.669 57.7011 21.0477 57.4238 21.3997C57.1465 21.7517 56.7518 22.045 56.2398 22.2797C55.7278 22.5037 55.0665 22.6157 54.2558 22.6157H51.2158V26.9997H49.2158V15.5757ZM51.2158 20.9837H54.1438C54.3678 20.9837 54.5971 20.9517 54.8318 20.8877C55.0665 20.8237 55.2798 20.7224 55.4718 20.5837C55.6745 20.4344 55.8345 20.2424 55.9518 20.0077C56.0798 19.7624 56.1438 19.4584 56.1438 19.0957C56.1438 18.7224 56.0905 18.413 55.9838 18.1677C55.8771 17.9224 55.7331 17.7304 55.5518 17.5917C55.3705 17.4424 55.1625 17.341 54.9278 17.2877C54.6931 17.2344 54.4425 17.2077 54.1758 17.2077H51.2158V20.9837ZM64.7517 16.9357C64.1437 16.9357 63.6157 17.0584 63.1677 17.3037C62.7303 17.549 62.373 17.8797 62.0957 18.2957C61.8183 18.701 61.6103 19.165 61.4717 19.6877C61.3437 20.2104 61.2797 20.7437 61.2797 21.2877C61.2797 21.8317 61.3437 22.365 61.4717 22.8877C61.6103 23.4104 61.8183 23.8797 62.0957 24.2957C62.373 24.701 62.7303 25.0264 63.1677 25.2717C63.6157 25.517 64.1437 25.6397 64.7517 25.6397C65.3597 25.6397 65.8823 25.517 66.3197 25.2717C66.7677 25.0264 67.1303 24.701 67.4077 24.2957C67.685 23.8797 67.8877 23.4104 68.0157 22.8877C68.1543 22.365 68.2237 21.8317 68.2237 21.2877C68.2237 20.7437 68.1543 20.2104 68.0157 19.6877C67.8877 19.165 67.685 18.701 67.4077 18.2957C67.1303 17.8797 66.7677 17.549 66.3197 17.3037C65.8823 17.0584 65.3597 16.9357 64.7517 16.9357ZM64.7517 15.3037C65.605 15.3037 66.3677 15.4637 67.0397 15.7837C67.7223 16.1037 68.2983 16.5357 68.7677 17.0797C69.237 17.6237 69.5943 18.2584 69.8397 18.9837C70.0957 19.709 70.2237 20.477 70.2237 21.2877C70.2237 22.109 70.0957 22.8824 69.8397 23.6077C69.5943 24.333 69.237 24.9677 68.7677 25.5117C68.2983 26.0557 67.7223 26.4877 67.0397 26.8077C66.3677 27.117 65.605 27.2717 64.7517 27.2717C63.8983 27.2717 63.1303 27.117 62.4477 26.8077C61.7757 26.4877 61.205 26.0557 60.7357 25.5117C60.2663 24.9677 59.9037 24.333 59.6477 23.6077C59.4023 22.8824 59.2797 22.109 59.2797 21.2877C59.2797 20.477 59.4023 19.709 59.6477 18.9837C59.9037 18.2584 60.2663 17.6237 60.7357 17.0797C61.205 16.5357 61.7757 16.1037 62.4477 15.7837C63.1303 15.4637 63.8983 15.3037 64.7517 15.3037ZM73.3559 23.1917C73.3559 23.629 73.4306 24.0024 73.5799 24.3117C73.7293 24.621 73.9373 24.877 74.2039 25.0797C74.4706 25.2717 74.7746 25.4157 75.1159 25.5117C75.4679 25.597 75.8466 25.6397 76.2519 25.6397C76.6893 25.6397 77.0626 25.5917 77.3719 25.4957C77.6813 25.389 77.9319 25.2557 78.1239 25.0957C78.3159 24.9357 78.4546 24.7544 78.5399 24.5517C78.6253 24.3384 78.6679 24.125 78.6679 23.9117C78.6679 23.4744 78.5666 23.1544 78.3639 22.9517C78.1719 22.7384 77.9586 22.589 77.7239 22.5037C77.3186 22.3544 76.8439 22.2157 76.2999 22.0877C75.7666 21.949 75.1053 21.773 74.3159 21.5597C73.8253 21.4317 73.4146 21.2664 73.0839 21.0637C72.7639 20.8504 72.5079 20.6157 72.3159 20.3597C72.1239 20.1037 71.9853 19.8317 71.8999 19.5437C71.8253 19.2557 71.7879 18.9624 71.7879 18.6637C71.7879 18.0877 71.9053 17.5917 72.1399 17.1757C72.3853 16.749 72.7053 16.397 73.0999 16.1197C73.4946 15.8424 73.9426 15.6397 74.4439 15.5117C74.9453 15.373 75.4519 15.3037 75.9639 15.3037C76.5613 15.3037 77.1213 15.3837 77.6439 15.5437C78.1773 15.693 78.6413 15.9224 79.0359 16.2317C79.4413 16.541 79.7613 16.925 79.9959 17.3837C80.2306 17.8317 80.3479 18.3544 80.3479 18.9517H78.3479C78.2946 18.2157 78.0439 17.6984 77.5959 17.3997C77.1479 17.0904 76.5773 16.9357 75.8839 16.9357C75.6493 16.9357 75.4093 16.9624 75.1639 17.0157C74.9186 17.0584 74.6946 17.1384 74.4919 17.2557C74.2893 17.3624 74.1186 17.5117 73.9799 17.7037C73.8519 17.8957 73.7879 18.1357 73.7879 18.4237C73.7879 18.829 73.9106 19.149 74.1559 19.3837C74.4119 19.6077 74.7426 19.7784 75.1479 19.8957C75.1906 19.9064 75.3559 19.9544 75.6439 20.0397C75.9426 20.1144 76.2733 20.1997 76.6359 20.2957C76.9986 20.3917 77.3506 20.4877 77.6919 20.5837C78.0439 20.669 78.2946 20.733 78.4439 20.7757C78.8173 20.893 79.1426 21.053 79.4199 21.2557C79.6973 21.4584 79.9266 21.693 80.1079 21.9597C80.2999 22.2157 80.4386 22.493 80.5239 22.7917C80.6199 23.0904 80.6679 23.389 80.6679 23.6877C80.6679 24.3277 80.5346 24.877 80.2679 25.3357C80.0119 25.7837 79.6706 26.1517 79.2439 26.4397C78.8173 26.7277 78.3319 26.9357 77.7879 27.0637C77.2439 27.2024 76.6893 27.2717 76.1239 27.2717C75.4733 27.2717 74.8599 27.1917 74.2839 27.0317C73.7079 26.8717 73.2066 26.6264 72.7799 26.2957C72.3533 25.965 72.0119 25.5437 71.7559 25.0317C71.4999 24.509 71.3666 23.8957 71.3559 23.1917H73.3559ZM81.3309 15.5757H90.5789V17.3037H86.9469V26.9997H84.9469V17.3037H81.3309V15.5757ZM99.4124 15.5757H101.541L105.941 26.9997H103.797L102.725 23.9757H98.1644L97.0924 26.9997H95.0284L99.4124 15.5757ZM98.7084 22.4557H102.197L100.485 17.5437H100.437L98.7084 22.4557ZM106.949 15.5757H109.061L114.277 23.9917H114.309V15.5757H116.213V26.9997H114.101L108.901 18.5997H108.853V26.9997H106.949V15.5757ZM128.543 26.9997H127.263L126.959 25.6557C126.426 26.2637 125.893 26.685 125.359 26.9197C124.826 27.1544 124.213 27.2717 123.519 27.2717C122.666 27.2717 121.898 27.117 121.215 26.8077C120.543 26.4877 119.973 26.0557 119.503 25.5117C119.034 24.9677 118.671 24.333 118.415 23.6077C118.17 22.8824 118.047 22.109 118.047 21.2877C118.047 20.477 118.17 19.709 118.415 18.9837C118.671 18.2584 119.034 17.6237 119.503 17.0797C119.973 16.5357 120.543 16.1037 121.215 15.7837C121.898 15.4637 122.666 15.3037 123.519 15.3037C124.138 15.3037 124.725 15.389 125.279 15.5597C125.845 15.7197 126.346 15.965 126.783 16.2957C127.221 16.6157 127.583 17.021 127.871 17.5117C128.159 18.0024 128.341 18.5677 128.415 19.2077H126.463C126.41 18.8344 126.293 18.509 126.111 18.2317C125.941 17.9437 125.722 17.7037 125.455 17.5117C125.189 17.3197 124.89 17.1757 124.559 17.0797C124.229 16.9837 123.882 16.9357 123.519 16.9357C122.911 16.9357 122.383 17.0584 121.935 17.3037C121.498 17.549 121.141 17.8797 120.863 18.2957C120.586 18.701 120.378 19.165 120.239 19.6877C120.111 20.2104 120.047 20.7437 120.047 21.2877C120.047 21.8317 120.111 22.365 120.239 22.8877C120.378 23.4104 120.586 23.8797 120.863 24.2957C121.141 24.701 121.498 25.0264 121.935 25.2717C122.383 25.517 122.911 25.6397 123.519 25.6397C124.031 25.6504 124.485 25.5864 124.879 25.4477C125.274 25.2984 125.605 25.0904 125.871 24.8237C126.149 24.5464 126.357 24.2104 126.495 23.8157C126.634 23.421 126.709 22.9837 126.719 22.5037H123.679V20.9837H128.543V26.9997ZM130.716 15.5757H138.94V17.3037H132.716V20.2957H138.476V21.9277H132.716V25.2717H139.052V26.9997H130.716V15.5757ZM140.794 15.5757H142.794V25.2717H148.602V26.9997H140.794V15.5757ZM149.982 15.5757H158.206V17.3037H151.982V20.2957H157.742V21.9277H151.982V25.2717H158.318V26.9997H149.982V15.5757ZM161.372 23.1917C161.372 23.629 161.446 24.0024 161.596 24.3117C161.745 24.621 161.953 24.877 162.22 25.0797C162.486 25.2717 162.79 25.4157 163.132 25.5117C163.484 25.597 163.862 25.6397 164.268 25.6397C164.705 25.6397 165.078 25.5917 165.388 25.4957C165.697 25.389 165.948 25.2557 166.14 25.0957C166.332 24.9357 166.47 24.7544 166.556 24.5517C166.641 24.3384 166.684 24.125 166.684 23.9117C166.684 23.4744 166.582 23.1544 166.38 22.9517C166.188 22.7384 165.974 22.589 165.74 22.5037C165.334 22.3544 164.86 22.2157 164.316 22.0877C163.782 21.949 163.121 21.773 162.332 21.5597C161.841 21.4317 161.43 21.2664 161.1 21.0637C160.78 20.8504 160.524 20.6157 160.332 20.3597C160.14 20.1037 160.001 19.8317 159.916 19.5437C159.841 19.2557 159.804 18.9624 159.804 18.6637C159.804 18.0877 159.921 17.5917 160.156 17.1757C160.401 16.749 160.721 16.397 161.116 16.1197C161.51 15.8424 161.958 15.6397 162.46 15.5117C162.961 15.373 163.468 15.3037 163.98 15.3037C164.577 15.3037 165.137 15.3837 165.66 15.5437C166.193 15.693 166.657 15.9224 167.052 16.2317C167.457 16.541 167.777 16.925 168.012 17.3837C168.246 17.8317 168.364 18.3544 168.364 18.9517H166.364C166.31 18.2157 166.06 17.6984 165.612 17.3997C165.164 17.0904 164.593 16.9357 163.9 16.9357C163.665 16.9357 163.425 16.9624 163.18 17.0157C162.934 17.0584 162.71 17.1384 162.508 17.2557C162.305 17.3624 162.134 17.5117 161.996 17.7037C161.868 17.8957 161.804 18.1357 161.804 18.4237C161.804 18.829 161.926 19.149 162.172 19.3837C162.428 19.6077 162.758 19.7784 163.164 19.8957C163.206 19.9064 163.372 19.9544 163.66 20.0397C163.958 20.1144 164.289 20.1997 164.652 20.2957C165.014 20.3917 165.366 20.4877 165.708 20.5837C166.06 20.669 166.31 20.733 166.46 20.7757C166.833 20.893 167.158 21.053 167.436 21.2557C167.713 21.4584 167.942 21.693 168.124 21.9597C168.316 22.2157 168.454 22.493 168.54 22.7917C168.636 23.0904 168.684 23.389 168.684 23.6877C168.684 24.3277 168.55 24.877 168.284 25.3357C168.028 25.7837 167.686 26.1517 167.26 26.4397C166.833 26.7277 166.348 26.9357 165.804 27.0637C165.26 27.2024 164.705 27.2717 164.14 27.2717C163.489 27.2717 162.876 27.1917 162.3 27.0317C161.724 26.8717 161.222 26.6264 160.796 26.2957C160.369 25.965 160.028 25.5437 159.772 25.0317C159.516 24.509 159.382 23.8957 159.372 23.1917H161.372Z" fill="#F9FAFF"/>
<mask id="mask1_3002_236" style="mask-type:luminance" maskUnits="userSpaceOnUse" x="0" y="0" width="40" height="40">
<path d="M40 0H0V40H40V0Z" fill="white"/>
</mask>
<g mask="url(#mask1_3002_236)">
<path d="M20 39.5C30.7696 39.5 39.5 30.7696 39.5 20C39.5 9.23045 30.7696 0.5 20 0.5C9.23045 0.5 0.5 9.23045 0.5 20C0.5 30.7696 9.23045 39.5 20 39.5Z" stroke="#F9FAFF"/>
<path d="M7.70898 12.6543H14.1641C15.4401 12.6543 16.4688 13.0156 17.25 13.7383C18.0312 14.4544 18.4219 15.4635 18.4219 16.7656C18.4219 17.8854 18.0736 18.862 17.377 19.6953C16.6803 20.5221 15.6094 20.9355 14.1641 20.9355H9.65234V27H7.70898V12.6543ZM16.459 16.7754C16.459 15.7207 16.0684 15.0046 15.2871 14.627C14.8574 14.4251 14.2682 14.3242 13.5195 14.3242H9.65234V19.2949H13.5195C14.3919 19.2949 15.0983 19.1094 15.6387 18.7383C16.1855 18.3672 16.459 17.7129 16.459 16.7754Z" fill="#F9FAFF"/>
<path d="M29.8867 21.1211L27.709 14.7832L25.3945 21.1211H29.8867ZM26.6934 12.6543H28.8906L34.0957 27H31.9668L30.5117 22.7031H24.8379L23.2852 27H21.293L26.6934 12.6543Z" fill="#F9FAFF"/>
</g>
<path d="M44.5 0V40" stroke="#F9FAFF"/>
</g>
</svg>
