<svg width="40" height="40" viewBox="0 0 40 40" fill="none" xmlns="http://www.w3.org/2000/svg">
<mask id="mask0_3466_9386" style="mask-type:luminance" maskUnits="userSpaceOnUse" x="0" y="0" width="40" height="40">
<path d="M40 0H0V40H40V0Z" fill="white"/>
</mask>
<g mask="url(#mask0_3466_9386)">
<path d="M20 39.5C30.7696 39.5 39.5 30.7696 39.5 20C39.5 9.23045 30.7696 0.5 20 0.5C9.23045 0.5 0.5 9.23045 0.5 20C0.5 30.7696 9.23045 39.5 20 39.5Z" stroke="#0D36C9"/>
<path d="M7.70898 12.6543H14.1641C15.4401 12.6543 16.4688 13.0156 17.25 13.7383C18.0312 14.4544 18.4219 15.4635 18.4219 16.7656C18.4219 17.8854 18.0736 18.862 17.377 19.6953C16.6803 20.5221 15.6094 20.9355 14.1641 20.9355H9.65234V27H7.70898V12.6543ZM16.459 16.7754C16.459 15.7207 16.0684 15.0046 15.2871 14.627C14.8574 14.4251 14.2682 14.3242 13.5195 14.3242H9.65234V19.2949H13.5195C14.3919 19.2949 15.0983 19.1094 15.6387 18.7383C16.1855 18.3672 16.459 17.7129 16.459 16.7754Z" fill="#0D36C9"/>
<path d="M29.8867 21.1211L27.709 14.7832L25.3945 21.1211H29.8867ZM26.6934 12.6543H28.8906L34.0957 27H31.9668L30.5117 22.7031H24.8379L23.2852 27H21.293L26.6934 12.6543Z" fill="#0D36C9"/>
</g>
</svg>
