<svg width="62.000000" height="21.000000" viewBox="0 0 62 21" fill="none" xmlns="http://www.w3.org/2000/svg" xmlns:xlink="http://www.w3.org/1999/xlink">
	<desc>
			Created with Pixso.
	</desc>
	<defs/>
	<path id="Shape" d="M50 10.85L54.71 15L50 19.14L51.3 20L57 15L51.3 10L50 10.85Z" fill="#000000" fill-opacity="1.000000" fill-rule="evenodd"/>
	<path id="Shape" d="M55 10.85L59.71 15L55 19.14L56.3 20L62 15L56.3 10L55 10.85Z" fill="#000000" fill-opacity="1.000000" fill-rule="evenodd"/>
	<path id="Shape" d="M5 19.48C5 19.57 4.99 19.65 4.98 19.71C4.97 19.77 4.95 19.82 4.93 19.87C4.91 19.91 4.88 19.94 4.85 19.96C4.82 19.99 4.78 20 4.74 20L0.47 20C0.36 20 0.25 19.96 0.15 19.89C0.05 19.82 0 19.69 0 19.51L0 11.22C0 11.18 0 11.15 0.02 11.12C0.04 11.09 0.08 11.07 0.13 11.05C0.18 11.04 0.25 11.02 0.33 11.01C0.41 11 0.52 11 0.64 11C0.76 11 0.86 11 0.94 11.01C1.03 11.02 1.09 11.04 1.14 11.05C1.19 11.07 1.23 11.09 1.25 11.12C1.27 11.15 1.28 11.18 1.28 11.22L1.28 18.96L4.74 18.96C4.78 18.96 4.82 18.97 4.85 19C4.88 19.02 4.91 19.05 4.93 19.08C4.95 19.12 4.97 19.18 4.98 19.24C4.99 19.31 5 19.38 5 19.48Z" fill="#000000" fill-opacity="1.000000" fill-rule="evenodd"/>
	<path id="Shape" d="M8 19.77C8 19.81 7.99 19.84 7.97 19.87C7.96 19.9 7.93 19.92 7.89 19.94C7.85 19.95 7.8 19.97 7.74 19.98C7.67 19.99 7.59 20 7.5 20C7.4 20 7.32 19.99 7.26 19.98C7.19 19.97 7.14 19.95 7.1 19.94C7.06 19.92 7.03 19.9 7.02 19.87C7 19.84 7 19.81 7 19.77L7 11.22C7 11.18 7 11.15 7.02 11.12C7.04 11.09 7.07 11.07 7.11 11.05C7.15 11.04 7.2 11.02 7.26 11.01C7.33 11 7.41 11 7.5 11C7.59 11 7.67 11 7.74 11.01C7.8 11.02 7.85 11.04 7.89 11.05C7.93 11.07 7.96 11.09 7.97 11.12C7.99 11.15 8 11.18 8 11.22L8 19.77Z" fill="#000000" fill-opacity="1.000000" fill-rule="evenodd"/>
	<path id="Shape" d="M20 20.48C20 20.58 19.99 20.67 19.98 20.74C19.96 20.81 19.94 20.86 19.92 20.9C19.89 20.94 19.87 20.96 19.83 20.98C19.81 20.99 19.77 21 19.75 21C19.64 21 19.48 20.96 19.25 20.89C19.03 20.81 18.77 20.71 18.48 20.57C18.18 20.43 17.87 20.26 17.53 20.06C17.2 19.86 16.87 19.63 16.56 19.36C16.31 19.49 16 19.61 15.62 19.71C15.24 19.8 14.8 19.85 14.3 19.85C13.56 19.85 12.92 19.76 12.38 19.57C11.84 19.38 11.39 19.1 11.04 18.73C10.69 18.36 10.42 17.9 10.25 17.35C10.08 16.81 10 16.18 10 15.47C10 14.79 10.09 14.17 10.28 13.62C10.46 13.07 10.75 12.6 11.12 12.21C11.5 11.82 11.96 11.52 12.53 11.31C13.09 11.1 13.74 11 14.49 11C15.2 11 15.82 11.09 16.35 11.28C16.89 11.47 17.33 11.75 17.7 12.12C18.06 12.48 18.33 12.93 18.51 13.47C18.7 14 18.79 14.62 18.79 15.32C18.79 15.68 18.76 16.02 18.71 16.35C18.67 16.68 18.59 16.99 18.49 17.28C18.38 17.57 18.25 17.84 18.09 18.09C17.94 18.34 17.75 18.56 17.54 18.76C17.91 19.03 18.24 19.24 18.51 19.38C18.79 19.53 19.02 19.64 19.2 19.72C19.39 19.79 19.53 19.85 19.63 19.88C19.73 19.91 19.81 19.95 19.86 20C19.91 20.04 19.94 20.1 19.96 20.17C19.99 20.25 20 20.35 20 20.48ZM17.41 15.4C17.41 14.91 17.36 14.46 17.26 14.04C17.16 13.62 17 13.26 16.77 12.95C16.54 12.65 16.23 12.41 15.85 12.23C15.46 12.06 14.99 11.97 14.42 11.97C13.85 11.97 13.37 12.06 12.99 12.25C12.6 12.43 12.29 12.68 12.05 12.99C11.81 13.31 11.64 13.67 11.53 14.08C11.43 14.49 11.38 14.93 11.38 15.39C11.38 15.9 11.43 16.36 11.52 16.78C11.62 17.21 11.78 17.57 12.01 17.88C12.24 18.19 12.54 18.43 12.92 18.6C13.31 18.78 13.79 18.86 14.36 18.86C14.94 18.86 15.42 18.77 15.81 18.58C16.2 18.4 16.51 18.14 16.75 17.83C16.99 17.51 17.16 17.14 17.26 16.72C17.36 16.3 17.41 15.86 17.41 15.4Z" fill="#000000" fill-opacity="1.000000" fill-rule="evenodd"/>
	<path id="Shape" d="M29 13.62C29 14.07 28.9 14.47 28.71 14.83C28.53 15.19 28.26 15.5 27.91 15.75C27.56 16 27.13 16.2 26.62 16.34C26.11 16.48 25.51 16.55 24.8 16.55L23.51 16.55L23.51 19.77C23.51 19.81 23.5 19.84 23.47 19.87C23.44 19.9 23.4 19.92 23.35 19.94C23.29 19.95 23.21 19.97 23.12 19.98C23.02 19.99 22.9 20 22.75 20C22.61 20 22.48 19.99 22.39 19.98C22.29 19.97 22.21 19.95 22.15 19.94C22.09 19.92 22.05 19.9 22.03 19.87C22.01 19.84 22 19.81 22 19.77L22 11.51C22 11.32 22.06 11.19 22.18 11.11C22.3 11.03 22.44 11 22.59 11L25.03 11C25.28 11 25.52 11 25.74 11.02C25.97 11.04 26.24 11.07 26.54 11.12C26.85 11.18 27.16 11.28 27.49 11.42C27.8 11.57 28.08 11.75 28.3 11.96C28.52 12.17 28.69 12.41 28.82 12.69C28.93 12.97 29 13.28 29 13.62ZM27.4 13.72C27.4 13.35 27.32 13.05 27.14 12.8C26.97 12.56 26.75 12.38 26.5 12.25C26.24 12.14 25.98 12.06 25.71 12.03C25.43 12 25.17 11.98 24.91 11.98L23.51 11.98L23.51 15.57L24.87 15.57C25.33 15.57 25.71 15.52 26.01 15.43C26.32 15.34 26.57 15.21 26.78 15.05C26.98 14.89 27.14 14.69 27.24 14.46C27.35 14.23 27.4 13.98 27.4 13.72Z" fill="#000000" fill-opacity="1.000000" fill-rule="evenodd"/>
	<path id="Shape" d="M38.93 19.53C38.97 19.63 38.99 19.72 39 19.78C39 19.84 38.98 19.89 38.93 19.92C38.89 19.95 38.82 19.97 38.72 19.98C38.62 19.99 38.49 20 38.32 20C38.15 20 38.02 19.99 37.92 19.99C37.82 19.98 37.75 19.97 37.69 19.95C37.64 19.93 37.6 19.91 37.58 19.89C37.56 19.86 37.53 19.82 37.51 19.78L36.62 17.61L32.27 17.61L31.41 19.75C31.4 19.8 31.38 19.83 31.35 19.86C31.32 19.89 31.28 19.91 31.23 19.94C31.18 19.96 31.11 19.97 31.01 19.98C30.92 19.99 30.8 20 30.65 20C30.49 20 30.36 19.99 30.26 19.98C30.16 19.97 30.09 19.94 30.05 19.91C30.01 19.88 29.99 19.83 30 19.77C30 19.71 30.02 19.63 30.06 19.53L33.57 11.24C33.59 11.19 33.62 11.15 33.66 11.12C33.69 11.09 33.74 11.06 33.81 11.04C33.88 11.02 33.96 11.01 34.07 11C34.17 11 34.31 11 34.47 11C34.64 11 34.78 11 34.9 11C35.01 11.01 35.1 11.02 35.17 11.04C35.24 11.06 35.29 11.09 35.33 11.12C35.37 11.16 35.4 11.2 35.42 11.25L38.93 19.53ZM34.43 12.22L34.42 12.22L32.62 16.67L36.25 16.67L34.43 12.22Z" fill="#000000" fill-opacity="1.000000" fill-rule="evenodd"/>
	<path id="Shape" d="M42.14 16.49L42.14 19.77C42.14 19.81 42.13 19.84 42.11 19.87C42.09 19.9 42.06 19.92 42.01 19.94C41.96 19.95 41.89 19.97 41.81 19.98C41.72 19.99 41.62 20 41.5 20C41.37 20 41.27 19.99 41.19 19.98C41.11 19.97 41.04 19.95 40.99 19.94C40.93 19.92 40.9 19.9 40.88 19.87C40.86 19.84 40.85 19.81 40.85 19.77L40.85 16.49L38.1 11.46C38.05 11.35 38.01 11.27 38 11.21C37.99 11.15 38 11.1 38.04 11.07C38.08 11.04 38.14 11.02 38.24 11.01C38.34 11 38.47 11 38.63 11C38.78 11 38.91 11 39 11.01C39.09 11.02 39.16 11.03 39.22 11.05C39.27 11.06 39.32 11.09 39.34 11.12C39.37 11.15 39.4 11.18 39.42 11.23L40.77 13.79C40.89 14.04 41.02 14.29 41.14 14.56C41.26 14.83 41.39 15.09 41.52 15.36L41.54 15.36C41.65 15.1 41.77 14.84 41.89 14.58C42.01 14.32 42.14 14.07 42.26 13.81L43.61 11.24C43.63 11.19 43.65 11.15 43.68 11.12C43.7 11.09 43.74 11.06 43.79 11.05C43.84 11.03 43.9 11.02 43.99 11.01C44.07 11 44.18 11 44.31 11C44.49 11 44.63 11 44.74 11.01C44.84 11.02 44.91 11.05 44.95 11.08C44.99 11.11 45 11.16 44.99 11.22C44.98 11.28 44.94 11.36 44.89 11.46L42.14 16.49Z" fill="#000000" fill-opacity="1.000000" fill-rule="evenodd"/>
	<path id="Powered-by" d="M3.98 2.03C3.98 2.6 3.76 3.05 3.33 3.36C2.89 3.67 2.27 3.83 1.46 3.83L0.73 3.83L0.73 6.07L0 6.07L0 0.36L1.62 0.36C3.19 0.36 3.98 0.92 3.98 2.03ZM0.73 3.26L1.38 3.26C2.03 3.26 2.5 3.16 2.79 2.97C3.08 2.78 3.22 2.48 3.22 2.06C3.22 1.68 3.08 1.4 2.81 1.21C2.54 1.03 2.12 0.94 1.54 0.94L0.73 0.94L0.73 3.26ZM9.25 3.93C9.25 4.63 9.05 5.17 8.66 5.56C8.28 5.96 7.75 6.15 7.06 6.15C6.64 6.15 6.27 6.06 5.94 5.88C5.62 5.7 5.36 5.44 5.19 5.11C5.01 4.77 4.92 4.38 4.92 3.93C4.92 3.23 5.11 2.69 5.5 2.3C5.88 1.91 6.41 1.71 7.09 1.71C7.75 1.71 8.27 1.91 8.66 2.31C9.05 2.71 9.25 3.25 9.25 3.93ZM5.66 3.93C5.66 4.48 5.78 4.89 6.02 5.18C6.26 5.47 6.61 5.61 7.08 5.61C7.55 5.61 7.9 5.47 8.14 5.18C8.39 4.9 8.51 4.48 8.51 3.93C8.51 3.38 8.39 2.97 8.14 2.69C7.9 2.41 7.54 2.26 7.07 2.26C6.6 2.26 6.25 2.4 6.01 2.68C5.78 2.96 5.66 3.38 5.66 3.93ZM14.16 6.07L13.3 3.56C13.25 3.41 13.14 3.06 12.99 2.51L12.96 2.51C12.84 2.97 12.75 3.32 12.66 3.57L11.77 6.07L10.95 6.07L9.66 1.79L10.41 1.79C10.71 2.87 10.94 3.69 11.1 4.25C11.26 4.81 11.35 5.19 11.37 5.39L11.41 5.39C11.44 5.24 11.49 5.05 11.56 4.81C11.63 4.57 11.69 4.39 11.74 4.25L12.61 1.79L13.38 1.79L14.22 4.25C14.38 4.7 14.49 5.07 14.55 5.38L14.58 5.38C14.59 5.28 14.62 5.14 14.67 4.94C14.73 4.75 15.02 3.7 15.57 1.79L16.31 1.79L15.01 6.07L14.16 6.07ZM19.15 6.15C18.45 6.15 17.9 5.96 17.5 5.57C17.1 5.19 16.9 4.65 16.9 3.97C16.9 3.28 17.08 2.73 17.46 2.32C17.83 1.92 18.33 1.71 18.96 1.71C19.55 1.71 20.02 1.89 20.36 2.24C20.71 2.6 20.88 3.06 20.88 3.64L20.88 4.05L17.64 4.05C17.65 4.55 17.79 4.93 18.05 5.19C18.32 5.45 18.69 5.58 19.17 5.58C19.68 5.58 20.18 5.49 20.68 5.3L20.68 5.87C20.42 5.97 20.19 6.04 19.96 6.09C19.74 6.13 19.47 6.15 19.15 6.15ZM18.95 2.26C18.58 2.26 18.27 2.37 18.05 2.59C17.83 2.82 17.69 3.13 17.65 3.52L20.11 3.52C20.11 3.11 20.01 2.8 19.81 2.58C19.61 2.37 19.33 2.26 18.95 2.26ZM24.24 1.71C24.45 1.71 24.64 1.73 24.8 1.76L24.7 2.36C24.51 2.32 24.34 2.3 24.19 2.3C23.81 2.3 23.48 2.44 23.21 2.73C22.94 3.01 22.81 3.36 22.81 3.78L22.81 6.07L22.09 6.07L22.09 1.79L22.68 1.79L22.76 2.58L22.8 2.58C22.97 2.31 23.18 2.09 23.43 1.94C23.67 1.79 23.94 1.71 24.24 1.71ZM27.5 6.15C26.8 6.15 26.25 5.96 25.85 5.57C25.45 5.19 25.25 4.65 25.25 3.97C25.25 3.28 25.43 2.73 25.81 2.32C26.18 1.92 26.68 1.71 27.31 1.71C27.9 1.71 28.37 1.89 28.71 2.24C29.05 2.6 29.23 3.06 29.23 3.64L29.23 4.05L25.98 4.05C26 4.55 26.14 4.93 26.4 5.19C26.67 5.45 27.04 5.58 27.52 5.58C28.03 5.58 28.53 5.49 29.02 5.3L29.02 5.87C28.77 5.97 28.53 6.04 28.31 6.09C28.08 6.13 27.81 6.15 27.5 6.15ZM27.3 2.26C26.92 2.26 26.62 2.37 26.4 2.59C26.17 2.82 26.04 3.13 26 3.52L28.46 3.52C28.46 3.11 28.36 2.8 28.16 2.58C27.96 2.37 27.67 2.26 27.3 2.26ZM33.64 5.5L33.61 5.5C33.28 5.93 32.78 6.15 32.13 6.15C31.51 6.15 31.03 5.96 30.69 5.58C30.35 5.19 30.18 4.65 30.18 3.94C30.18 3.24 30.35 2.69 30.69 2.3C31.04 1.91 31.52 1.71 32.13 1.71C32.77 1.71 33.26 1.92 33.6 2.35L33.65 2.35L33.62 2.04L33.61 1.74L33.61 0L34.32 0L34.32 6.07L33.74 6.07L33.64 5.5ZM32.22 5.61C32.71 5.61 33.06 5.49 33.28 5.25C33.5 5.01 33.61 4.62 33.61 4.08L33.61 3.94C33.61 3.34 33.5 2.91 33.27 2.65C33.05 2.39 32.7 2.26 32.21 2.26C31.79 2.26 31.47 2.41 31.25 2.7C31.03 3 30.92 3.41 30.92 3.95C30.92 4.5 31.03 4.91 31.25 5.19C31.47 5.47 31.79 5.61 32.22 5.61ZM40.31 1.72C40.92 1.72 41.4 1.91 41.75 2.3C42.09 2.68 42.26 3.23 42.26 3.93C42.26 4.63 42.09 5.18 41.74 5.57C41.4 5.96 40.92 6.15 40.31 6.15C40 6.15 39.72 6.1 39.47 6C39.21 5.89 39 5.74 38.83 5.52L38.78 5.52L38.63 6.07L38.11 6.07L38.11 0L38.83 0L38.83 1.47C38.83 1.8 38.82 2.1 38.79 2.36L38.83 2.36C39.16 1.93 39.65 1.72 40.31 1.72ZM40.2 2.26C39.72 2.26 39.36 2.39 39.15 2.65C38.93 2.9 38.83 3.33 38.83 3.93C38.83 4.53 38.94 4.96 39.16 5.22C39.38 5.48 39.73 5.61 40.22 5.61C40.66 5.61 40.98 5.46 41.2 5.17C41.41 4.88 41.52 4.47 41.52 3.92C41.52 3.36 41.41 2.95 41.2 2.67C40.98 2.4 40.65 2.26 40.2 2.26ZM42.58 1.79L43.34 1.79L44.38 4.23C44.6 4.79 44.74 5.19 44.8 5.44L44.83 5.44C44.87 5.31 44.95 5.08 45.07 4.76C45.18 4.44 45.57 3.45 46.23 1.79L47 1.79L44.97 6.67C44.77 7.15 44.54 7.49 44.27 7.69C44 7.89 43.67 8 43.28 8C43.07 8 42.85 7.97 42.64 7.93L42.64 7.41C42.8 7.44 42.97 7.46 43.17 7.46C43.66 7.46 44.01 7.21 44.22 6.71L44.48 6.1L42.58 1.79Z" fill="#000000" fill-opacity="1.000000" fill-rule="evenodd"/>
</svg>
