<svg width="79.000000" height="22.000000" viewBox="0 0 79 22" fill="none" xmlns="http://www.w3.org/2000/svg" xmlns:xlink="http://www.w3.org/1999/xlink">
	<desc>
			Created with Pixso.
	</desc>
	<defs/>
	<path id="Vector" d="M6.33 14.97C5.93 14.74 5.49 14.55 5.04 14.41C4.58 14.28 4.1 14.21 3.63 14.22C3.31 14.22 3.01 14.25 2.75 14.31C2.5 14.36 2.27 14.45 2.06 14.57C1.88 14.68 1.73 14.82 1.62 14.99C1.51 15.15 1.46 15.33 1.46 15.53C1.46 15.72 1.5 15.87 1.59 16C1.69 16.13 1.82 16.24 1.99 16.33C2.16 16.42 2.37 16.5 2.62 16.56C2.87 16.62 3.15 16.66 3.46 16.71L4.13 16.79C4.52 16.84 4.9 16.92 5.27 17.02C5.64 17.13 5.97 17.27 6.26 17.46C6.56 17.65 6.79 17.89 6.97 18.17C7.14 18.46 7.23 18.81 7.23 19.21C7.23 19.66 7.13 20.06 6.92 20.4C6.72 20.75 6.43 21.04 6.08 21.27C5.73 21.51 5.32 21.68 4.85 21.81C4.39 21.93 3.89 21.99 3.37 21.99C2.67 21.98 1.98 21.88 1.32 21.69C0.98 21.59 0.65 21.47 0.33 21.32C0.03 21.18 -0.25 21.01 -0.5 20.81L0.34 19.67C0.51 19.81 0.7 19.94 0.94 20.06C1.68 20.43 2.51 20.63 3.36 20.64C3.68 20.64 3.98 20.61 4.25 20.55C4.52 20.49 4.76 20.41 4.96 20.3C5.15 20.19 5.31 20.05 5.44 19.88C5.56 19.72 5.61 19.54 5.61 19.34C5.61 19 5.43 18.73 5.06 18.55C4.69 18.37 4.15 18.24 3.45 18.15L2.7 18.05C2.34 18.01 1.99 17.93 1.65 17.83C1.32 17.73 1.01 17.58 0.73 17.38C0.46 17.19 0.24 16.95 0.08 16.67C-0.08 16.38 -0.16 16.03 -0.16 15.62C-0.16 15.18 -0.06 14.79 0.14 14.45C0.34 14.1 0.61 13.82 0.95 13.58C1.32 13.34 1.73 13.16 2.16 13.05C2.62 12.93 3.12 12.87 3.64 12.87C4.34 12.87 4.97 12.95 5.54 13.12C6.11 13.29 6.63 13.52 7.12 13.82L6.33 14.97ZM11.58 15.65C12.04 15.65 12.46 15.72 12.85 15.87C13.23 16.03 13.56 16.24 13.83 16.52C14.1 16.8 14.32 17.14 14.47 17.52C14.62 17.91 14.7 18.34 14.7 18.81C14.7 18.97 14.69 19.14 14.67 19.3L9.8 19.3C9.85 19.57 9.93 19.81 10.05 20C10.18 20.19 10.33 20.35 10.5 20.48C10.68 20.6 10.87 20.69 11.09 20.75C11.3 20.81 11.53 20.84 11.76 20.84C12.09 20.84 12.42 20.78 12.76 20.67C13.09 20.56 13.39 20.4 13.67 20.2L14.39 21.14C13.98 21.45 13.55 21.67 13.1 21.8C12.65 21.93 12.17 21.99 11.67 21.99C11.18 21.99 10.72 21.91 10.31 21.76C9.91 21.62 9.55 21.4 9.24 21.12C8.94 20.83 8.7 20.49 8.55 20.12C8.38 19.7 8.29 19.26 8.3 18.82C8.3 18.35 8.38 17.92 8.54 17.53C8.7 17.14 8.93 16.8 9.21 16.52C9.5 16.24 9.85 16.03 10.25 15.87C10.67 15.72 11.13 15.64 11.58 15.65L11.58 15.65ZM11.56 16.82C11.3 16.82 11.07 16.85 10.87 16.92C10.68 16.99 10.5 17.09 10.35 17.23C10.21 17.36 10.09 17.52 10 17.7C9.91 17.88 9.84 18.08 9.81 18.3L13.23 18.3C13.15 17.83 12.97 17.47 12.68 17.2C12.39 16.95 12.01 16.81 11.56 16.81L11.56 16.82ZM19.2 15.65C19.7 15.65 20.16 15.73 20.58 15.89C21.01 16.05 21.37 16.29 21.67 16.61L20.75 17.51C20.53 17.32 20.28 17.16 20.01 17.05C19.75 16.93 19.46 16.88 19.16 16.88C18.89 16.88 18.63 16.93 18.39 17.02C18.16 17.12 17.94 17.25 17.77 17.42C17.59 17.59 17.46 17.8 17.36 18.03C17.26 18.27 17.21 18.53 17.21 18.82C17.21 19.1 17.26 19.36 17.36 19.6C17.46 19.84 17.6 20.04 17.77 20.21C17.94 20.38 18.15 20.51 18.39 20.61C18.63 20.7 18.89 20.75 19.16 20.75C19.48 20.75 19.77 20.69 20.05 20.57C20.33 20.45 20.57 20.3 20.78 20.12L21.67 21.03C21.37 21.34 21 21.59 20.58 21.75C20.16 21.91 19.7 21.99 19.2 21.99C18.68 21.99 18.2 21.91 17.78 21.75C17.37 21.59 17 21.37 16.68 21.08C16.38 20.79 16.14 20.45 15.98 20.08C15.81 19.67 15.73 19.25 15.73 18.82C15.73 18.36 15.82 17.94 15.98 17.56C16.14 17.18 16.38 16.84 16.68 16.55C16.99 16.27 17.35 16.05 17.78 15.89C18.2 15.73 18.68 15.65 19.2 15.65ZM29.05 19.28C29.05 19.75 28.96 20.17 28.78 20.51C28.61 20.85 28.38 21.14 28.1 21.35C27.81 21.57 27.48 21.74 27.12 21.83C26.38 22.04 25.6 22.04 24.86 21.83C24.5 21.74 24.17 21.57 23.88 21.35C23.58 21.12 23.35 20.83 23.19 20.51C23.02 20.17 22.93 19.75 22.93 19.28L22.93 15.8L24.38 15.8L24.38 19.16C24.38 19.45 24.42 19.69 24.5 19.9C24.59 20.1 24.7 20.26 24.84 20.39C24.99 20.52 25.16 20.61 25.36 20.66C25.55 20.72 25.76 20.75 25.99 20.75C26.21 20.75 26.42 20.72 26.62 20.66C26.82 20.61 26.99 20.52 27.14 20.39C27.28 20.26 27.39 20.1 27.48 19.9C27.56 19.69 27.6 19.45 27.6 19.16L27.6 15.8L29.04 15.8L29.04 19.28L29.05 19.28ZM34.3 15.65C34.52 15.65 34.72 15.66 34.89 15.68C35.07 15.71 35.24 15.75 35.41 15.81L35.06 17.12C34.89 17.04 34.72 16.99 34.53 16.95C34.35 16.92 34.16 16.9 33.97 16.9C33.74 16.9 33.53 16.93 33.33 17C33.14 17.08 32.98 17.18 32.84 17.32C32.69 17.47 32.58 17.64 32.51 17.83C32.44 18.03 32.4 18.26 32.4 18.51L32.4 21.83L30.96 21.83L30.96 15.8L32.38 15.8L32.38 16.48C32.6 16.19 32.88 15.98 33.2 15.84C33.53 15.71 33.89 15.64 34.3 15.64L34.3 15.65ZM39.13 15.65C39.59 15.65 40.01 15.72 40.39 15.87C40.78 16.03 41.1 16.24 41.38 16.52C41.65 16.8 41.86 17.14 42.02 17.52C42.17 17.91 42.25 18.34 42.25 18.81C42.25 18.97 42.24 19.14 42.22 19.3L37.35 19.3C37.39 19.57 37.48 19.81 37.6 20C37.72 20.19 37.87 20.35 38.05 20.48C38.22 20.6 38.42 20.69 38.63 20.75C38.85 20.81 39.07 20.84 39.31 20.84C39.64 20.84 39.97 20.78 40.3 20.67C40.63 20.56 40.94 20.4 41.21 20.2L41.93 21.14C41.53 21.45 41.1 21.67 40.65 21.8C40.2 21.93 39.72 21.99 39.22 21.99C38.72 21.99 38.27 21.91 37.85 21.76C37.45 21.62 37.09 21.4 36.79 21.12C36.49 20.83 36.25 20.49 36.09 20.12C35.92 19.7 35.84 19.26 35.85 18.82C35.85 18.35 35.93 17.92 36.09 17.53C36.25 17.14 36.47 16.8 36.76 16.52C37.05 16.24 37.41 16.02 37.8 15.87C38.22 15.72 38.67 15.64 39.13 15.65ZM39.1 16.82C38.84 16.82 38.62 16.85 38.42 16.92C38.22 16.99 38.05 17.09 37.9 17.23C37.76 17.36 37.64 17.52 37.55 17.7C37.45 17.88 37.39 18.08 37.35 18.3L40.77 18.3C40.7 17.83 40.51 17.47 40.22 17.2C39.93 16.95 39.56 16.81 39.1 16.81L39.1 16.82ZM48.46 12.86C48.88 12.86 49.3 12.9 49.69 12.98C50.08 13.06 50.46 13.18 50.81 13.35C51.16 13.51 51.47 13.7 51.75 13.93C52.03 14.16 52.26 14.41 52.45 14.7L51.15 15.49C50.86 15.1 50.47 14.78 50.01 14.56C49.53 14.33 49 14.21 48.46 14.22C47.97 14.22 47.51 14.3 47.09 14.45C46.69 14.6 46.32 14.83 46.01 15.11C45.7 15.4 45.46 15.75 45.3 16.12C45.13 16.52 45.04 16.95 45.04 17.42C45.04 17.9 45.13 18.33 45.3 18.73C45.46 19.11 45.7 19.45 46.01 19.74C46.32 20.02 46.67 20.24 47.09 20.4C47.51 20.55 47.97 20.63 48.46 20.63C49.03 20.63 49.54 20.52 50 20.3C50.46 20.07 50.85 19.75 51.14 19.36L52.41 20.21C52.2 20.49 51.96 20.74 51.68 20.96C51.4 21.18 51.09 21.36 50.76 21.52C50.41 21.67 50.05 21.79 49.67 21.87C49.28 21.95 48.88 22 48.46 22C47.76 22 47.07 21.89 46.42 21.65C45.82 21.44 45.28 21.11 44.82 20.7C44.37 20.29 44.02 19.79 43.78 19.25C43.53 18.67 43.4 18.05 43.41 17.42C43.41 16.77 43.53 16.16 43.78 15.6C44.03 15.04 44.38 14.56 44.82 14.15C45.28 13.74 45.82 13.41 46.42 13.2C47.07 12.97 47.76 12.85 48.46 12.86ZM56.96 15.65C57.47 15.65 57.94 15.73 58.37 15.89C58.79 16.04 59.17 16.26 59.49 16.55C59.81 16.83 60.07 17.18 60.24 17.56C60.42 17.94 60.51 18.36 60.51 18.82C60.51 19.27 60.42 19.69 60.24 20.07C60.07 20.45 59.81 20.8 59.49 21.08C59.17 21.37 58.79 21.59 58.37 21.75C57.92 21.91 57.44 21.99 56.96 21.99C56.45 21.99 55.98 21.91 55.54 21.75C55.12 21.59 54.74 21.37 54.42 21.08C54.1 20.79 53.85 20.45 53.68 20.07C53.5 19.67 53.41 19.25 53.41 18.82C53.41 18.36 53.5 17.94 53.68 17.56C53.86 17.17 54.1 16.83 54.42 16.55C54.73 16.27 55.11 16.05 55.54 15.89C55.97 15.72 56.45 15.64 56.96 15.64L56.96 15.65ZM56.96 16.88C56.66 16.88 56.39 16.93 56.14 17.02C55.89 17.12 55.67 17.25 55.48 17.42C55.29 17.6 55.15 17.81 55.05 18.03C54.94 18.28 54.89 18.55 54.89 18.82C54.89 19.1 54.95 19.36 55.05 19.6C55.15 19.83 55.29 20.03 55.48 20.21C55.67 20.38 55.89 20.52 56.14 20.61C56.39 20.7 56.66 20.75 56.96 20.75C57.25 20.75 57.52 20.7 57.78 20.61C58.03 20.51 58.25 20.38 58.43 20.21C58.62 20.04 58.76 19.84 58.87 19.6C58.98 19.36 59.03 19.1 59.03 18.82C59.03 18.53 58.98 18.27 58.87 18.03C58.77 17.8 58.62 17.6 58.43 17.42C58.25 17.25 58.02 17.12 57.78 17.02C57.52 16.93 57.24 16.88 56.96 16.88ZM64.84 15.65C65.31 15.65 65.72 15.73 66.06 15.89C66.4 16.05 66.68 16.26 66.91 16.53L66.91 12.77L68.35 12.77L68.35 21.83L66.91 21.83L66.91 21.11C66.68 21.38 66.39 21.59 66.06 21.75C65.72 21.91 65.31 21.99 64.84 21.99C64.4 21.99 63.97 21.92 63.57 21.76C63.17 21.61 62.8 21.38 62.5 21.09C62.19 20.81 61.96 20.47 61.8 20.09C61.62 19.68 61.54 19.25 61.54 18.82C61.54 18.35 61.63 17.93 61.8 17.54C61.97 17.16 62.2 16.82 62.5 16.54C62.8 16.25 63.17 16.02 63.57 15.87C63.97 15.72 64.4 15.64 64.84 15.65ZM65.01 16.88C64.7 16.88 64.42 16.93 64.17 17.04C63.93 17.14 63.72 17.28 63.55 17.45C63.38 17.63 63.25 17.84 63.16 18.07C63.07 18.3 63.02 18.55 63.02 18.82C63.02 19.08 63.07 19.33 63.16 19.57C63.25 19.8 63.38 20 63.55 20.18C63.72 20.35 63.93 20.49 64.17 20.59C64.42 20.7 64.7 20.75 65.01 20.75C65.31 20.75 65.58 20.7 65.82 20.6C66.07 20.5 66.27 20.37 66.45 20.19C66.62 20.02 66.76 19.82 66.85 19.58C66.95 19.34 67 19.08 67 18.82C67 18.56 66.95 18.3 66.85 18.05C66.76 17.82 66.63 17.62 66.45 17.44C66.27 17.26 66.06 17.13 65.82 17.03C65.57 16.93 65.29 16.88 65.01 16.88ZM73.14 15.65C73.6 15.65 74.02 15.72 74.4 15.87C74.79 16.03 75.11 16.24 75.39 16.52C75.66 16.8 75.87 17.14 76.03 17.52C76.18 17.91 76.26 18.34 76.26 18.81C76.26 18.97 76.25 19.14 76.23 19.3L71.36 19.3C71.4 19.57 71.49 19.81 71.61 20C71.74 20.19 71.88 20.35 72.06 20.48C72.23 20.6 72.43 20.69 72.64 20.75C72.86 20.81 73.08 20.84 73.32 20.84C73.65 20.84 73.98 20.78 74.31 20.67C74.65 20.56 74.95 20.4 75.23 20.2L75.94 21.14C75.54 21.45 75.11 21.67 74.66 21.8C74.21 21.93 73.73 21.99 73.23 21.99C72.73 21.99 72.28 21.91 71.87 21.76C71.47 21.62 71.1 21.4 70.8 21.12C70.5 20.83 70.26 20.49 70.1 20.12C69.93 19.7 69.85 19.26 69.86 18.82C69.86 18.35 69.94 17.92 70.1 17.53C70.26 17.14 70.48 16.8 70.77 16.52C71.06 16.24 71.41 16.03 71.81 15.87C72.23 15.72 72.68 15.64 73.14 15.65ZM76.95 21.83L76.95 21.53L77.08 21.53L77.08 21.47L76.74 21.47L76.74 21.53L76.87 21.53L76.87 21.83L76.95 21.83ZM77.61 21.83L77.61 21.47L77.5 21.47L77.38 21.72L77.26 21.47L77.16 21.47L77.16 21.83L77.23 21.83L77.23 21.56L77.34 21.79L77.42 21.79L77.53 21.56L77.53 21.83L77.61 21.83ZM73.11 16.82C72.85 16.82 72.63 16.85 72.43 16.92C72.23 16.99 72.06 17.09 71.91 17.23C71.77 17.36 71.65 17.52 71.56 17.7C71.47 17.88 71.4 18.08 71.36 18.3L74.79 18.3C74.71 17.83 74.52 17.47 74.24 17.2C73.95 16.95 73.57 16.81 73.11 16.81L73.11 16.82ZM11.07 9.4L9.45 9.4L9.45 1.88L6.53 8.5L4.83 8.5L1.91 1.95L1.91 9.4L0.3 9.4L0.3 0.26L2.78 0.26L5.68 6.79L8.59 0.26L11.07 0.26L11.07 9.4L11.07 9.4ZM19.56 9.4L18.07 9.4L18.07 8.65C17.83 8.93 17.53 9.15 17.19 9.31C16.83 9.48 16.41 9.56 15.92 9.56C15.24 9.57 14.57 9.38 14.01 9.03C13.44 8.68 13.01 8.18 12.77 7.59C12.59 7.17 12.5 6.72 12.5 6.27C12.5 5.79 12.59 5.35 12.77 4.95C12.94 4.55 13.18 4.2 13.5 3.91C13.81 3.61 14.19 3.38 14.6 3.22C15.02 3.06 15.47 2.98 15.92 2.98C16.41 2.98 16.83 3.06 17.19 3.23C17.54 3.4 17.83 3.62 18.07 3.9L18.07 3.14L19.56 3.14L19.56 9.4ZM16.1 4.27C15.8 4.26 15.51 4.32 15.23 4.42C14.98 4.53 14.76 4.68 14.59 4.86C14.41 5.04 14.28 5.25 14.18 5.49C14.08 5.74 14.04 6 14.04 6.27C14.04 6.55 14.08 6.8 14.18 7.05C14.28 7.29 14.41 7.5 14.59 7.68C14.76 7.87 14.98 8.01 15.23 8.12C15.49 8.22 15.78 8.27 16.1 8.27C16.41 8.27 16.69 8.22 16.94 8.12C17.2 8.02 17.41 7.88 17.59 7.7C17.77 7.52 17.91 7.31 18.01 7.07C18.12 6.81 18.17 6.54 18.16 6.27C18.16 5.98 18.11 5.72 18.01 5.47C17.92 5.24 17.78 5.02 17.59 4.84C17.41 4.66 17.19 4.52 16.94 4.42C16.68 4.32 16.39 4.26 16.1 4.27ZM26.42 4.71C26.14 4.56 25.83 4.44 25.52 4.36C25.33 4.3 25.14 4.26 24.94 4.23C24.73 4.19 24.52 4.17 24.3 4.17C23.89 4.17 23.58 4.24 23.35 4.38C23.13 4.52 23.01 4.7 23.01 4.92C23.01 5.03 23.04 5.12 23.1 5.19C23.16 5.27 23.25 5.33 23.34 5.38C23.44 5.42 23.56 5.46 23.7 5.49C23.83 5.52 23.98 5.54 24.14 5.57L24.85 5.66C25.59 5.76 26.18 5.96 26.6 6.26C27.01 6.56 27.23 6.98 27.23 7.51C27.23 7.8 27.16 8.08 27.01 8.34C26.87 8.59 26.66 8.82 26.41 8.98C26.14 9.16 25.82 9.3 25.43 9.41C25.04 9.5 24.6 9.55 24.11 9.55C23.93 9.55 23.73 9.54 23.5 9.52C22.97 9.48 22.45 9.36 21.96 9.16C21.68 9.06 21.42 8.92 21.18 8.75L21.87 7.73C21.99 7.81 22.13 7.9 22.27 7.97C22.42 8.05 22.58 8.11 22.77 8.17C22.95 8.23 23.15 8.28 23.37 8.31C23.59 8.35 23.84 8.37 24.13 8.37C24.64 8.37 25.03 8.3 25.29 8.16C25.55 8.02 25.68 7.84 25.68 7.6C25.68 7.42 25.59 7.28 25.4 7.16C25.21 7.05 24.91 6.96 24.5 6.91L23.78 6.83C23.02 6.73 22.44 6.53 22.05 6.21C21.66 5.9 21.46 5.5 21.46 4.99C21.46 4.68 21.53 4.4 21.66 4.16C21.79 3.91 21.98 3.7 22.22 3.52C22.47 3.35 22.76 3.22 23.11 3.13C23.5 3.03 23.89 2.98 24.29 2.99C24.83 2.99 25.33 3.04 25.81 3.16C26.29 3.27 26.7 3.44 27.06 3.65L26.42 4.71ZM33.5 4.38L30.88 4.38L30.88 7.11C30.88 7.32 30.91 7.49 30.96 7.64C31.01 7.78 31.09 7.9 31.2 8C31.29 8.1 31.41 8.17 31.54 8.21C31.67 8.25 31.81 8.27 31.96 8.27C32.2 8.27 32.43 8.24 32.67 8.15C32.91 8.07 33.14 7.97 33.34 7.85L33.93 8.94C33.66 9.11 33.35 9.26 33 9.38C32.63 9.5 32.23 9.57 31.83 9.56C31.06 9.56 30.46 9.36 30.02 8.97C29.59 8.58 29.38 7.96 29.38 7.13L29.38 4.38L28.01 4.38L28.01 3.14L29.38 3.14L29.38 1.25L30.88 1.25L30.88 3.14L33.5 3.14L33.5 4.38ZM38.09 2.98C38.57 2.98 39 3.06 39.4 3.22C39.8 3.38 40.14 3.6 40.42 3.89C40.71 4.18 40.93 4.53 41.09 4.93C41.25 5.33 41.33 5.78 41.33 6.26C41.33 6.43 41.32 6.6 41.3 6.77L36.24 6.77C36.29 7.06 36.38 7.3 36.5 7.5C36.63 7.7 36.79 7.86 36.97 7.99C37.15 8.12 37.35 8.21 37.58 8.27C37.8 8.33 38.03 8.37 38.28 8.37C38.62 8.37 38.96 8.31 39.31 8.19C39.65 8.08 39.97 7.91 40.25 7.71L41 8.68C40.61 8.99 40.16 9.22 39.66 9.36C39.2 9.5 38.7 9.56 38.18 9.56C37.67 9.56 37.2 9.48 36.77 9.33C36.35 9.18 35.98 8.95 35.66 8.66C35.35 8.37 35.11 8.03 34.94 7.62C34.76 7.19 34.68 6.73 34.68 6.27C34.68 5.78 34.77 5.34 34.93 4.93C35.1 4.53 35.33 4.18 35.63 3.89C35.93 3.6 36.29 3.38 36.71 3.22C37.15 3.06 37.62 2.98 38.09 2.98ZM38.06 4.19C37.8 4.19 37.56 4.23 37.35 4.3C37.15 4.38 36.97 4.48 36.82 4.62C36.66 4.76 36.54 4.93 36.45 5.11C36.35 5.31 36.28 5.52 36.25 5.74L39.8 5.74C39.72 5.25 39.53 4.87 39.23 4.6C38.93 4.33 38.54 4.19 38.06 4.19ZM46.49 2.98C46.72 2.98 46.93 2.99 47.11 3.02C47.3 3.05 47.47 3.09 47.64 3.16L47.29 4.51C47.11 4.43 46.93 4.37 46.74 4.33C46.54 4.3 46.35 4.28 46.15 4.28C45.91 4.28 45.69 4.32 45.49 4.39C45.3 4.46 45.12 4.57 44.98 4.72C44.84 4.86 44.73 5.04 44.64 5.25C44.56 5.45 44.52 5.69 44.52 5.96L44.52 9.4L43.03 9.4L43.03 3.14L44.51 3.14L44.51 3.85C44.74 3.55 45.02 3.33 45.36 3.19C45.72 3.05 46.1 2.98 46.49 2.98L46.49 2.98ZM51.6 2.98C52.11 2.98 52.59 3.06 53.03 3.23C53.48 3.4 53.85 3.65 54.16 3.98L53.2 4.91C52.98 4.72 52.72 4.55 52.44 4.43C52.16 4.32 51.86 4.26 51.56 4.27C51.27 4.27 51 4.32 50.76 4.41C50.51 4.51 50.29 4.65 50.11 4.83C49.93 5.01 49.78 5.22 49.69 5.46C49.59 5.7 49.54 5.97 49.54 6.27C49.54 6.57 49.59 6.84 49.69 7.08C49.79 7.33 49.93 7.54 50.11 7.72C50.3 7.89 50.51 8.03 50.76 8.13C51 8.23 51.27 8.27 51.56 8.27C51.89 8.27 52.19 8.21 52.48 8.09C52.76 7.96 53.02 7.81 53.23 7.62L54.16 8.56C53.85 8.89 53.46 9.14 53.03 9.31C52.59 9.48 52.11 9.56 51.6 9.56C51.06 9.56 50.56 9.48 50.12 9.31C49.7 9.15 49.31 8.92 48.99 8.62C48.67 8.32 48.42 7.96 48.26 7.58C48.08 7.16 48 6.72 48 6.27C48 5.8 48.09 5.37 48.26 4.96C48.42 4.58 48.67 4.22 48.99 3.92C49.3 3.63 49.68 3.4 50.12 3.23C50.59 3.06 51.09 2.97 51.6 2.98ZM62.11 9.4L60.61 9.4L60.61 8.65C60.38 8.92 60.08 9.15 59.73 9.31C59.38 9.48 58.96 9.56 58.47 9.56C57.78 9.57 57.12 9.38 56.55 9.03C55.99 8.68 55.55 8.18 55.31 7.59C55.13 7.17 55.04 6.72 55.05 6.27C55.05 5.79 55.13 5.35 55.31 4.95C55.49 4.55 55.73 4.2 56.04 3.91C56.35 3.61 56.73 3.37 57.15 3.21C57.57 3.06 58.01 2.98 58.47 2.98C58.96 2.98 59.38 3.06 59.73 3.23C60.08 3.4 60.38 3.62 60.61 3.9L60.61 3.14L62.11 3.14L62.11 9.4ZM58.65 4.26C58.35 4.26 58.05 4.32 57.78 4.42C57.52 4.53 57.31 4.68 57.13 4.86C56.96 5.04 56.82 5.25 56.73 5.49C56.63 5.74 56.58 6 56.58 6.27C56.58 6.54 56.63 6.8 56.73 7.05C56.82 7.29 56.96 7.5 57.13 7.68C57.31 7.86 57.52 8.01 57.78 8.11C58.03 8.22 58.32 8.27 58.65 8.27C58.96 8.27 59.24 8.22 59.49 8.12C59.74 8.02 59.96 7.88 60.14 7.7C60.32 7.52 60.46 7.31 60.56 7.07C60.66 6.81 60.71 6.54 60.71 6.27C60.71 6 60.66 5.73 60.56 5.47C60.47 5.24 60.32 5.02 60.14 4.84C59.96 4.66 59.74 4.52 59.49 4.42C59.22 4.31 58.94 4.26 58.65 4.26ZM67.77 2.98C68 2.98 68.2 2.99 68.39 3.02C68.57 3.05 68.75 3.09 68.92 3.16L68.56 4.51C68.39 4.43 68.2 4.37 68.01 4.33C67.82 4.3 67.63 4.28 67.43 4.28C67.19 4.28 66.97 4.32 66.77 4.39C66.57 4.46 66.4 4.57 66.26 4.72C66.11 4.86 66 5.04 65.92 5.25C65.84 5.45 65.8 5.69 65.8 5.96L65.8 9.4L64.31 9.4L64.31 3.14L65.79 3.14L65.79 3.85C66.01 3.55 66.3 3.33 66.64 3.19C66.97 3.05 67.35 2.98 67.77 2.98L67.77 2.98ZM72.67 2.98C73.16 2.98 73.58 3.06 73.93 3.23C74.28 3.4 74.58 3.62 74.82 3.9L74.82 0L76.31 0L76.31 9.4L74.82 9.4L74.82 8.65C74.58 8.92 74.28 9.15 73.93 9.31C73.58 9.48 73.16 9.56 72.67 9.56C71.99 9.57 71.32 9.38 70.75 9.03C70.19 8.68 69.76 8.18 69.51 7.59C69.33 7.17 69.24 6.72 69.25 6.27C69.25 5.79 69.34 5.35 69.51 4.95C69.69 4.54 69.93 4.2 70.24 3.91C70.56 3.61 70.93 3.37 71.35 3.21C71.77 3.06 72.22 2.98 72.67 2.98ZM78.05 8.82C78.11 8.82 78.17 8.83 78.22 8.85C78.27 8.87 78.32 8.9 78.36 8.93C78.45 9.01 78.5 9.11 78.5 9.22C78.5 9.27 78.48 9.32 78.46 9.37C78.42 9.44 78.37 9.5 78.3 9.55C78.22 9.59 78.14 9.61 78.05 9.61C77.96 9.61 77.88 9.59 77.81 9.55C77.73 9.5 77.68 9.44 77.64 9.37C77.61 9.3 77.6 9.22 77.61 9.14C77.63 9.06 77.67 8.99 77.74 8.94C77.82 8.86 77.93 8.82 78.05 8.82ZM78.05 9.53C78.12 9.53 78.18 9.51 78.24 9.48C78.29 9.44 78.34 9.39 78.36 9.34C78.38 9.3 78.39 9.26 78.39 9.22C78.39 9.18 78.38 9.14 78.36 9.1C78.35 9.06 78.32 9.03 78.29 9C78.26 8.97 78.22 8.95 78.18 8.93C78.14 8.91 78.1 8.91 78.05 8.91C77.96 8.91 77.87 8.94 77.81 9C77.78 9.03 77.75 9.06 77.74 9.1C77.72 9.14 77.71 9.18 77.71 9.22C77.71 9.28 77.73 9.34 77.77 9.39C77.81 9.44 77.86 9.48 77.92 9.5C77.96 9.52 78.01 9.53 78.05 9.53ZM78.08 9.03C78.13 9.03 78.17 9.04 78.2 9.06C78.23 9.08 78.24 9.11 78.24 9.15C78.24 9.16 78.24 9.18 78.23 9.19C78.23 9.2 78.22 9.22 78.21 9.23C78.18 9.25 78.15 9.26 78.11 9.26L78.24 9.4L78.14 9.4L78.02 9.26L77.98 9.26L77.98 9.4L77.89 9.4L77.89 9.03L78.08 9.03ZM77.98 9.1L77.98 9.2L78.08 9.2C78.1 9.2 78.12 9.19 78.13 9.18C78.15 9.18 78.15 9.16 78.15 9.15C78.15 9.14 78.15 9.13 78.15 9.13C78.14 9.12 78.14 9.12 78.13 9.11C78.11 9.1 78.1 9.1 78.08 9.1L77.98 9.1ZM72.85 4.26C72.55 4.26 72.25 4.32 71.98 4.42C71.73 4.53 71.51 4.68 71.33 4.86C71.16 5.04 71.02 5.25 70.93 5.49C70.83 5.74 70.78 6 70.78 6.27C70.78 6.54 70.83 6.8 70.93 7.05C71.02 7.29 71.16 7.5 71.33 7.68C71.51 7.86 71.73 8.01 71.98 8.11C72.23 8.22 72.52 8.27 72.85 8.27C73.16 8.27 73.44 8.22 73.69 8.12C73.93 8.02 74.16 7.88 74.34 7.7C74.52 7.52 74.66 7.31 74.76 7.07C74.86 6.81 74.91 6.54 74.91 6.27C74.91 6 74.86 5.73 74.76 5.47C74.67 5.24 74.52 5.02 74.34 4.84C74.16 4.66 73.93 4.52 73.69 4.42C73.42 4.31 73.14 4.26 72.85 4.26Z" fill="#000000" fill-opacity="1.000000" fill-rule="evenodd"/>
</svg>
