<svg width="148.000000" height="22.000000" viewBox="0 0 148 22" fill="none" xmlns="http://www.w3.org/2000/svg" xmlns:xlink="http://www.w3.org/1999/xlink">
	<desc>
			Created with Pixso.
	</desc>
	<defs/>
	<path id="Vector" d="M28.6 18.99L25 18.98L25.01 8L38 8.01L37.98 19L34.38 18.99L34.39 10.14L28.61 10.13L28.6 18.99Z" fill="#303030" fill-opacity="1.000000" fill-rule="evenodd"/>
	<path id="Vector" d="M43.22 14.58C43.23 12.18 44.85 11.71 45.87 11.71C46.87 11.71 48.49 12.19 48.49 14.58C48.49 16.07 47.8 17.48 45.86 17.48C43.89 17.48 43.22 16.06 43.22 14.58ZM40.01 10.31L40 21.99L43.37 22L43.38 18C44.51 19.11 46.35 19.2 46.79 19.2C50.01 19.2 51.99 17.33 52 14.62C52 11.79 50.05 10 46.87 10C46.07 9.99 44.52 10.11 43.23 11.34L43.16 11.34L43.18 10.31L40.01 10.31Z" fill="#303030" fill-opacity="1.000000" fill-rule="evenodd"/>
	<path id="Vector" d="M59.59 18.63C58.34 19.71 57.13 20 55.79 20C52.13 19.99 51.99 17.47 52 16.42L52 11L55.4 11L55.39 16.02C55.39 17.74 56.04 18.25 57.29 18.25C59.43 18.26 59.59 16.5 59.59 15.87L59.6 11L63 11L62.99 19.68L59.59 19.67L59.59 18.63Z" fill="#303030" fill-opacity="1.000000" fill-rule="evenodd"/>
	<path id="Vector" d="M67.43 12.6L69.28 12.6C70.25 12.61 71.08 12.73 71.08 13.39C71.08 14.12 69.77 14.13 69.21 14.13L67.43 14.13L67.43 12.6ZM64 11L64 18.99L70.8 19C73.28 19 74.99 18.59 75 16.95C75 15.69 74.16 15.14 72.27 14.86L72.27 14.81C73.51 14.67 74.59 14.03 74.59 12.94C74.59 11 71.89 11 70.83 11L64 11ZM67.42 15.62L69.52 15.63C71.14 15.63 71.48 16.04 71.48 16.57C71.48 16.92 71.25 17.39 69.56 17.39L67.42 17.39L67.42 15.62Z" fill="#303030" fill-opacity="1.000000" fill-rule="evenodd"/>
	<path id="Vector" d="M83.25 15.22C83.25 16.91 81.7 17.32 80.92 17.32C80.33 17.31 79.28 17.13 79.28 16.34C79.28 15.4 80.48 15.22 81.15 15.14C82.39 14.97 82.29 15.02 83.25 14.69L83.25 15.22ZM79.55 13.01C79.56 11.77 80.94 11.68 81.51 11.68C81.87 11.68 83.2 11.69 83.24 12.78L83.24 13.01C83.17 13.84 82.33 13.67 79.97 13.95C78.04 14.19 76 14.66 76 16.57C76 17.26 76.31 18.99 79.72 19C81.02 19 82.45 18.68 83.29 17.86L83.36 17.86L83.63 18.68L87 18.69L87 18.54C86.39 18.42 86.34 17.86 86.37 16.96L86.43 13.13C86.46 12.16 86.35 10 81.54 10C80.38 9.99 76.66 10.09 76.5 13.01L79.55 13.01Z" fill="#303030" fill-opacity="1.000000" fill-rule="evenodd"/>
	<path id="Vector" d="M87 12.6L87 11L98 11L97.99 12.61L94.21 12.61L94.2 19L90.77 18.99L90.78 12.6L87 12.6Z" fill="#303030" fill-opacity="1.000000" fill-rule="evenodd"/>
	<path id="Vector" d="M101.58 14.22L104.54 14.22C105.41 14.22 107.14 14.3 107.14 15.62C107.14 16.66 105.88 16.86 104.47 16.86L101.57 16.85L101.58 14.22ZM101.58 10.13L109.79 10.14L109.79 8.01L98.01 8L98 18.99L105.23 19C108.74 19 110.99 17.93 111 15.69C111 12.17 106.5 12.09 105.24 12.08L101.58 12.08L101.58 10.13Z" fill="#303030" fill-opacity="1.000000" fill-rule="evenodd"/>
	<path id="Vector" d="M119.25 15.22C119.25 16.91 117.69 17.32 116.92 17.32C116.33 17.31 115.28 17.13 115.28 16.34C115.28 15.4 116.48 15.22 117.15 15.14C118.39 14.97 118.29 15.02 119.25 14.69L119.25 15.22ZM115.55 13.01C115.56 11.77 116.94 11.68 117.51 11.68C117.87 11.68 119.19 11.69 119.24 12.78L119.24 13.01C119.17 13.84 118.33 13.67 115.97 13.95C114.04 14.19 112 14.66 112 16.57C111.99 17.26 112.31 18.99 115.72 19C117.02 19 118.45 18.68 119.29 17.86L119.36 17.86L119.63 18.69L123 18.69L123 18.54C122.39 18.42 122.34 17.86 122.36 16.96L122.43 13.13C122.45 12.16 122.35 10 117.53 10C116.38 9.99 112.65 10.09 112.5 13.01L115.55 13.01Z" fill="#303030" fill-opacity="1.000000" fill-rule="evenodd"/>
	<path id="Vector" d="M127.43 18.99L124 18.99L124.01 11L127.43 11L127.43 14L131.56 14.01L131.56 11L135 11L134.98 19L131.55 18.99L131.56 15.61L127.43 15.61L127.43 18.99Z" fill="#303030" fill-opacity="1.000000" fill-rule="evenodd"/>
	<path id="Vector" d="M144.04 11L147.79 11L143.15 14.74L148 19L144.06 18.99L140.43 15.5L140.36 15.5L140.36 18.99L137 18.99L137 11L140.37 11L140.37 14.21L140.43 14.21L144.04 11Z" fill="#303030" fill-opacity="1.000000" fill-rule="evenodd"/>
	<path id="Vector" d="M0 18.99L7.99 19L8 12L0 12L0 18.99Z" fill="#303030" fill-opacity="1.000000" fill-rule="evenodd"/>
	<path id="Vector" d="M0 0L0 9.23L2.16 9.23C7.87 9.24 10.77 11.86 10.76 17.02L10.76 18.99L20.97 19L21 0.01L0 0ZM16.65 3.93L16.64 15.07L14.96 15.07C14.25 9.56 10.42 6.1 4.34 5.44L4.34 3.92L16.65 3.93Z" fill="#303030" fill-opacity="1.000000" fill-rule="evenodd"/>
</svg>
