<svg width="48.000000" height="22.000000" viewBox="0 0 48 22" fill="none" xmlns="http://www.w3.org/2000/svg" xmlns:xlink="http://www.w3.org/1999/xlink">
	<desc>
			Created with Pixso.
	</desc>
	<defs/>
	<path id="Vector" d="M2.56 7.65L0 0.5L1.09 0.5L2.32 4.02C2.66 4.98 2.95 5.85 3.16 6.69L3.18 6.69C3.4 5.86 3.73 4.96 4.08 4.03L5.41 0.5L6.49 0.5L3.68 7.65L2.56 7.65L2.56 7.65ZM7.03 5.25C7.05 6.51 7.94 7.03 8.97 7.03C9.7 7.03 10.14 6.92 10.53 6.77L10.7 7.44C10.34 7.58 9.72 7.76 8.83 7.76C7.09 7.76 6.05 6.72 6.05 5.17C6.05 3.62 7.05 2.4 8.7 2.4C10.54 2.4 11.03 3.87 11.03 4.82C11.03 5.01 11 5.16 11 5.25L7.03 5.25ZM10.04 4.58C10.05 3.99 9.77 3.06 8.62 3.06C7.58 3.06 7.12 3.93 7.04 4.58L10.04 4.58ZM11.83 4.12C11.83 3.51 11.82 2.99 11.79 2.51L12.69 2.51L12.72 3.52L12.77 3.52C13.02 2.83 13.64 2.4 14.33 2.4C14.45 2.4 14.53 2.41 14.62 2.43L14.62 3.31C14.5 3.29 14.39 3.27 14.27 3.28C13.55 3.28 13.04 3.78 12.9 4.48C12.87 4.62 12.85 4.77 12.85 4.91L12.85 7.65L11.83 7.65L11.83 4.12ZM16.37 1.07C16.38 1.39 16.13 1.64 15.72 1.64C15.64 1.64 15.55 1.63 15.48 1.6C15.4 1.57 15.33 1.53 15.27 1.47C15.22 1.42 15.17 1.36 15.14 1.29C15.11 1.22 15.1 1.14 15.1 1.07C15.1 0.74 15.37 0.49 15.74 0.49C16.13 0.49 16.37 0.74 16.37 1.07ZM15.23 2.51L16.25 2.51L16.25 7.65L15.23 7.65L15.23 2.51ZM17.6 7.65L17.6 3.22L16.8 3.22L16.8 2.51L17.6 2.51L17.6 2.27C17.6 1.55 17.77 0.89 18.25 0.47C18.63 0.13 19.15 0 19.63 0C19.99 0 20.3 0.07 20.5 0.14L20.36 0.86C20.15 0.78 19.93 0.74 19.71 0.75C18.83 0.75 18.61 1.45 18.61 2.23L18.61 2.51L19.97 2.51L19.97 3.22L18.61 3.22L18.61 7.65L17.6 7.65L17.6 7.65L17.6 7.65ZM22.13 1.07C22.14 1.39 21.88 1.64 21.48 1.64C21.39 1.64 21.31 1.63 21.23 1.6C21.16 1.57 21.09 1.53 21.03 1.47C20.97 1.42 20.93 1.36 20.9 1.29C20.87 1.22 20.85 1.14 20.86 1.07C20.86 0.74 21.13 0.49 21.5 0.49C21.88 0.49 22.13 0.74 22.13 1.07ZM20.99 2.51L22.01 2.51L22.01 7.65L20.99 7.65L20.99 2.51ZM23.82 5.25C23.84 6.51 24.73 7.03 25.76 7.03C26.49 7.03 26.93 6.92 27.32 6.77L27.5 7.44C27.13 7.58 26.51 7.76 25.62 7.76C23.88 7.76 22.84 6.72 22.84 5.17C22.84 3.62 23.84 2.4 25.49 2.4C27.33 2.4 27.82 3.87 27.82 4.82C27.82 5.01 27.8 5.16 27.79 5.25L23.82 5.25L23.82 5.25ZM26.83 4.58C26.84 3.99 26.56 3.06 25.41 3.06C24.37 3.06 23.91 3.93 23.83 4.58L26.83 4.58ZM33.5 0.11L33.5 6.32C33.5 6.78 33.51 7.3 33.55 7.65L32.62 7.65L32.58 6.76L32.55 6.76C32.24 7.33 31.55 7.76 30.63 7.76C29.27 7.76 28.22 6.72 28.22 5.15C28.2 3.44 29.37 2.39 30.75 2.39C31.61 2.39 32.19 2.77 32.45 3.18L32.47 3.18L32.47 0.11L33.5 0.11L33.5 0.11ZM32.47 4.6C32.47 4.49 32.46 4.33 32.43 4.21C32.28 3.62 31.72 3.13 30.95 3.13C29.89 3.13 29.26 3.98 29.26 5.11C29.26 6.15 29.82 7.01 30.92 7.01C31.61 7.01 32.24 6.6 32.43 5.9C32.46 5.76 32.48 5.63 32.47 5.49L32.47 4.6ZM37.3 7.65C37.33 7.3 37.35 6.78 37.35 6.32L37.35 0.11L38.36 0.11L38.36 3.34L38.39 3.34C38.75 2.77 39.4 2.4 40.31 2.4C41.71 2.4 42.7 3.46 42.69 5.02C42.69 6.85 41.42 7.76 40.16 7.76C39.34 7.76 38.69 7.48 38.27 6.8L38.24 6.8L38.19 7.65L37.3 7.65L37.3 7.65ZM38.36 5.59C38.36 5.71 38.39 5.83 38.41 5.93C38.61 6.58 39.2 7.02 39.95 7.02C41.02 7.02 41.66 6.23 41.66 5.05C41.66 4.02 41.08 3.14 39.98 3.14C39.28 3.14 38.63 3.57 38.42 4.28C38.39 4.39 38.36 4.52 38.36 4.66L38.36 5.59L38.36 5.59ZM43.81 2.51L45.04 5.55C45.17 5.89 45.31 6.29 45.41 6.6L45.43 6.6C45.53 6.29 45.65 5.9 45.79 5.53L46.91 2.51L48 2.51L46.46 6.17C45.72 7.94 45.22 8.84 44.52 9.39C44.02 9.79 43.52 9.95 43.26 10L43 9.21C43.26 9.13 43.6 8.99 43.9 8.75C44.18 8.55 44.53 8.19 44.76 7.71C44.81 7.62 44.85 7.54 44.85 7.49C44.84 7.41 44.81 7.32 44.78 7.25L42.69 2.51L43.81 2.51Z" fill="#000000" fill-opacity="1.000000" fill-rule="evenodd"/>
	<path id="Vector" d="M16.9 11.19L13.79 18.43L12.53 12.28C12.39 11.59 11.8 11.19 11.15 11.19L6.06 11.19L6 11.5C7.04 11.71 8.23 12.05 8.95 12.41C9.38 12.63 9.51 12.82 9.65 13.34L12.04 21.83L15.2 21.83L20.04 11.19L16.9 11.19L16.9 11.19ZM21.33 11.19L18.86 21.83L21.84 21.83L24.31 11.19L21.33 11.19ZM28.24 14.14C28.25 13.76 28.64 13.35 29.5 13.25C29.94 13.2 31.11 13.16 32.46 13.72L32.98 11.47C32.09 11.16 31.14 11 30.18 11C27.23 11 25.15 12.44 25.13 14.51C25.11 16.04 26.62 16.9 27.75 17.41C28.91 17.93 29.3 18.26 29.3 18.73C29.29 19.44 28.37 19.76 27.51 19.77C26 19.79 25.13 19.4 24.44 19.1L23.9 21.43C24.59 21.73 25.88 21.98 27.22 22C30.36 22 32.41 20.57 32.43 18.36C32.44 15.55 28.21 15.39 28.24 14.14L28.24 14.14ZM36.9 18.06L38.48 14.07L39.38 18.06L36.9 18.06ZM38.03 11.19C37.46 11.19 36.97 11.5 36.75 11.97L32.27 21.83L35.41 21.83L36.04 20.24L39.86 20.24L40.22 21.83L43 21.83L40.58 11.19L38.03 11.19Z" fill="#000000" fill-opacity="1.000000" fill-rule="evenodd"/>
</svg>
