<svg width="46" height="22" viewBox="0 0 46 22" fill="none" xmlns="http://www.w3.org/2000/svg">
<path fill-rule="evenodd" clip-rule="evenodd" d="M3.36625 7.71L0.964844 0.62H1.99043L3.13834 4.11C3.45407 5.067 3.72693 5.93 3.92453 6.76H3.94648C4.15348 5.94 4.45875 5.046 4.78598 4.12L6.03007 0.62H7.04521L4.41589 7.71H3.36521H3.36625ZM7.54493 5.332C7.56793 6.583 8.39593 7.098 9.35775 7.098C10.0457 7.098 10.4586 6.983 10.8203 6.836L10.9834 7.498C10.6458 7.644 10.0666 7.814 9.22707 7.814C7.60034 7.814 6.62807 6.784 6.62807 5.248C6.62807 3.712 7.56689 2.503 9.1058 2.503C10.8298 2.503 11.2887 3.965 11.2887 4.901C11.2887 5.09 11.2657 5.237 11.2563 5.331L7.54493 5.332ZM10.3603 4.669C10.3729 4.08 10.1094 3.164 9.03053 3.164C8.05825 3.164 7.6338 4.026 7.55643 4.669H10.3603ZM12.0414 4.207C12.0414 3.608 12.031 3.093 11.9996 2.619H12.8391L12.8705 3.619H12.9144C13.1548 2.935 13.7319 2.504 14.377 2.504C14.4857 2.504 14.5631 2.514 14.6488 2.535V3.409C14.5415 3.38548 14.4316 3.3744 14.3216 3.376C13.6462 3.376 13.1663 3.871 13.0357 4.566C13.0078 4.70784 12.9928 4.8517 12.9907 4.996V7.71H12.0414V4.207ZM16.2881 1.188C16.2985 1.504 16.0581 1.756 15.6765 1.756C15.599 1.75672 15.5221 1.74241 15.4505 1.71394C15.379 1.68548 15.3142 1.64343 15.26 1.59035C15.2059 1.53727 15.1636 1.47426 15.1356 1.40511C15.1076 1.33596 15.0946 1.2621 15.0973 1.188C15.0973 0.862 15.3482 0.61 15.6974 0.61C16.0581 0.61 16.2881 0.863 16.2881 1.188ZM15.2175 2.618H16.1793V7.708H15.2175V2.618ZM17.4339 7.71V3.322H16.6916V2.617H17.4339V2.375C17.4339 1.661 17.598 1.008 18.0444 0.597C18.4041 0.26 18.8839 0.125 19.3324 0.125C19.6712 0.125 19.9649 0.198 20.15 0.272L20.0183 0.986C19.8262 0.904888 19.6176 0.865609 19.4077 0.871C18.5902 0.871 18.3821 1.565 18.3821 2.343V2.616H19.6576V3.321H18.3821V7.707H17.4339V7.708V7.71ZM21.6743 1.188C21.6858 1.504 21.4443 1.756 21.0627 1.756C20.9852 1.75658 20.9085 1.74218 20.837 1.71365C20.7656 1.68512 20.7009 1.64305 20.6469 1.58999C20.5929 1.53692 20.5507 1.47396 20.5228 1.40487C20.4948 1.33579 20.4818 1.26202 20.4845 1.188C20.4845 0.862 20.7365 0.61 21.0846 0.61C21.4443 0.61 21.6743 0.863 21.6743 1.188ZM20.6048 2.618H21.5655V7.708H20.6048V2.618ZM23.2571 5.332C23.2801 6.583 24.1081 7.098 25.0699 7.098C25.7568 7.098 26.1708 6.983 26.5314 6.836L26.6956 7.498C26.3568 7.644 25.7766 7.814 24.9382 7.814C23.3114 7.814 22.3402 6.784 22.3402 5.248C22.3402 3.712 23.278 2.503 24.8179 2.503C26.5408 2.503 26.9988 3.965 26.9988 4.901C26.9988 5.09 26.9778 5.237 26.9674 5.331H23.256L23.2571 5.332ZM26.0714 4.669C26.0819 4.08 25.8205 3.164 24.7406 3.164C23.7683 3.164 23.3438 4.026 23.2665 4.669H26.0714ZM32.3149 0.242V6.394C32.3149 6.847 32.3253 7.362 32.3567 7.709H31.4953L31.4513 6.825H31.4283C31.1346 7.392 30.4916 7.823 29.6281 7.823C28.3526 7.823 27.3699 6.783 27.3699 5.236C27.3594 3.542 28.4498 2.502 29.7378 2.502C30.5449 2.502 31.0917 2.87 31.3301 3.279H31.3531V0.241H32.3149V0.242ZM31.3531 4.69C31.3531 4.575 31.3426 4.417 31.3102 4.3C31.1691 3.712 30.6443 3.228 29.925 3.228C28.9318 3.228 28.3432 4.068 28.3432 5.195C28.3432 6.225 28.8659 7.078 29.903 7.078C30.546 7.078 31.1356 6.668 31.3102 5.972C31.3416 5.84085 31.356 5.70651 31.3531 5.572V4.69ZM35.8694 7.71C35.8924 7.36 35.9123 6.846 35.9123 6.394V0.242H36.8616V3.438H36.8846C37.2233 2.872 37.8338 2.503 38.6848 2.503C39.9958 2.503 40.9221 3.555 40.9117 5.1C40.9117 6.92 39.7219 7.823 38.5427 7.823C37.7795 7.823 37.1668 7.54 36.7758 6.867H36.7445L36.6995 7.707H35.8694V7.71ZM36.8626 5.668C36.8626 5.783 36.8846 5.9 36.9065 6.005C37.0916 6.645 37.6478 7.087 38.3461 7.087C39.3498 7.087 39.9488 6.298 39.9488 5.131C39.9488 4.111 39.4041 3.238 38.3775 3.238C37.7241 3.238 37.1125 3.668 36.9159 4.374C36.8929 4.479 36.8605 4.606 36.8605 4.752V5.668H36.8626ZM41.9592 2.618L43.1144 5.626C43.2357 5.962 43.3674 6.362 43.4532 6.667H43.4762C43.5744 6.362 43.6832 5.972 43.8138 5.605L44.8614 2.618H45.8765L44.4359 6.247C43.748 7.992 43.2796 8.887 42.6252 9.433C42.1547 9.833 41.6863 9.991 41.4459 10.032L41.2054 9.252C41.4459 9.179 41.7616 9.032 42.046 8.8C42.3073 8.6 42.6346 8.242 42.8541 7.77C42.897 7.675 42.9304 7.602 42.9304 7.55C42.9214 7.46661 42.8992 7.38502 42.8646 7.308L40.9117 2.617L41.9592 2.618Z" />
<path fill-rule="evenodd" clip-rule="evenodd" d="M16.893 11.1823L13.9824 18.2773L12.8052 12.2453C12.6693 11.5723 12.1225 11.1823 11.5162 11.1823H6.75622L6.69141 11.4843C7.66786 11.6913 8.77813 12.0183 9.45141 12.3703C9.86227 12.5883 9.98041 12.7743 10.1132 13.2883L12.3442 21.6073H15.3028L19.8338 11.1843H16.893V11.1823ZM21.033 11.1823L18.7225 21.6053H21.5191L23.8264 11.1823H21.033ZM27.4991 14.0703C27.5085 13.6983 27.8775 13.3003 28.6857 13.1963C29.0882 13.1463 30.1911 13.1083 31.4457 13.6613L31.937 11.4533C31.1008 11.1489 30.214 10.9914 29.3192 10.9883C26.5519 10.9883 24.6095 12.4073 24.5917 14.4363C24.577 15.9343 25.9821 16.7743 27.0412 17.2743C28.1316 17.7823 28.4975 18.1093 28.4912 18.5683C28.486 19.2683 27.6225 19.5743 26.8195 19.5863C25.4113 19.6073 24.5959 19.2203 23.9445 18.9293L23.4385 21.2143C24.0899 21.5043 25.2984 21.7553 26.5509 21.7683C29.4844 21.7683 31.407 20.3663 31.4185 18.2023C31.429 15.4493 27.4709 15.2993 27.498 14.0713M35.5982 17.9133L37.0828 14.0003L37.9191 17.9133H35.5982ZM36.6594 11.1833C36.123 11.1833 35.6693 11.4813 35.4675 11.9473L31.2721 21.6053H34.2109L34.7953 20.0483H38.376L38.7105 21.6053H41.3054L39.0503 11.1823L36.6594 11.1833Z"/>
</svg>
