<svg width="25" height="24" viewBox="0 0 25 24" fill="none" xmlns="http://www.w3.org/2000/svg">
<g id="bi:filter">
<path id="Vector" d="M9.5 16.2143C9.5 16.0059 9.57902 15.8061 9.71967 15.6587C9.86032 15.5114 10.0511 15.4286 10.25 15.4286H14.75C14.9489 15.4286 15.1397 15.5114 15.2803 15.6587C15.421 15.8061 15.5 16.0059 15.5 16.2143C15.5 16.4227 15.421 16.6225 15.2803 16.7699C15.1397 16.9172 14.9489 17 14.75 17H10.25C10.0511 17 9.86032 16.9172 9.71967 16.7699C9.57902 16.6225 9.5 16.4227 9.5 16.2143ZM6.5 11.5C6.5 11.2916 6.57902 11.0918 6.71967 10.9444C6.86032 10.7971 7.05109 10.7143 7.25 10.7143H17.75C17.9489 10.7143 18.1397 10.7971 18.2803 10.9444C18.421 11.0918 18.5 11.2916 18.5 11.5C18.5 11.7084 18.421 11.9082 18.2803 12.0556C18.1397 12.2029 17.9489 12.2857 17.75 12.2857H7.25C7.05109 12.2857 6.86032 12.2029 6.71967 12.0556C6.57902 11.9082 6.5 11.7084 6.5 11.5ZM3.5 6.78571C3.5 6.57733 3.57902 6.37748 3.71967 6.23013C3.86032 6.08278 4.05109 6 4.25 6H20.75C20.9489 6 21.1397 6.08278 21.2803 6.23013C21.421 6.37748 21.5 6.57733 21.5 6.78571C21.5 6.9941 21.421 7.19395 21.2803 7.3413C21.1397 7.48865 20.9489 7.57143 20.75 7.57143H4.25C4.05109 7.57143 3.86032 7.48865 3.71967 7.3413C3.57902 7.19395 3.5 6.9941 3.5 6.78571Z" fill="#43444A"/>
</g>
</svg>
