<svg width="24" height="24" viewBox="0 0 24 24" fill="none" xmlns="http://www.w3.org/2000/svg">
<path d="M10.7457 16.3017C10.7812 16.3371 10.8093 16.3791 10.8284 16.4254C10.8476 16.4716 10.8575 16.5212 10.8575 16.5713C10.8575 16.6213 10.8476 16.6709 10.8284 16.7171C10.8093 16.7634 10.7812 16.8054 10.7457 16.8408L7.69821 19.8883C7.66283 19.9237 7.62082 19.9518 7.57457 19.971C7.52832 19.9901 7.47875 20 7.42869 20C7.37863 20 7.32906 19.9901 7.28281 19.971C7.23657 19.9518 7.19455 19.9237 7.15918 19.8883L4.11164 16.8408C4.04016 16.7693 4 16.6723 4 16.5713C4 16.4702 4.04016 16.3732 4.11164 16.3017C4.18312 16.2303 4.28007 16.1901 4.38115 16.1901C4.48224 16.1901 4.57919 16.2303 4.65067 16.3017L7.04775 18.6988V4.38124C7.04775 4.28021 7.08788 4.18331 7.15933 4.11187C7.23077 4.04043 7.32766 4.0003 7.42869 4.0003C7.52972 4.0003 7.62662 4.04043 7.69806 4.11187C7.7695 4.18331 7.80963 4.28021 7.80963 4.38124V18.6988L10.2067 16.3017C10.2421 16.2663 10.2841 16.2382 10.3304 16.2191C10.3766 16.1999 10.4262 16.19 10.4762 16.19C10.5263 16.19 10.5759 16.1999 10.6221 16.2191C10.6684 16.2382 10.7104 16.2663 10.7457 16.3017ZM19.8884 7.15923L16.8408 4.11172C16.8054 4.07631 16.7634 4.04821 16.7172 4.02904C16.6709 4.00987 16.6214 4 16.5713 4C16.5212 4 16.4717 4.00987 16.4254 4.02904C16.3792 4.04821 16.3372 4.07631 16.3018 4.11172L13.2543 7.15923C13.1828 7.23071 13.1426 7.32766 13.1426 7.42874C13.1426 7.52983 13.1828 7.62678 13.2543 7.69826C13.3257 7.76974 13.4227 7.80989 13.5238 7.80989C13.6249 7.80989 13.7218 7.76974 13.7933 7.69826L16.1904 5.3012V19.6188C16.1904 19.7198 16.2305 19.8167 16.3019 19.8881C16.3734 19.9596 16.4703 19.9997 16.5713 19.9997C16.6723 19.9997 16.7692 19.9596 16.8407 19.8881C16.9121 19.8167 16.9522 19.7198 16.9522 19.6188V5.3012L19.3493 7.69826C19.3847 7.73365 19.4267 7.76172 19.473 7.78088C19.5192 7.80003 19.5688 7.80989 19.6188 7.80989C19.6689 7.80989 19.7185 7.80003 19.7647 7.78088C19.811 7.76172 19.853 7.73365 19.8884 7.69826C19.9238 7.66286 19.9518 7.62085 19.971 7.5746C19.9901 7.52836 20 7.4788 20 7.42874C20 7.37869 19.9901 7.32913 19.971 7.28288C19.9518 7.23664 19.9238 7.19462 19.8884 7.15923Z" fill="#43444A"/>
</svg>
