<svg width="40" height="40" viewBox="0 0 40 40" fill="" xmlns="http://www.w3.org/2000/svg">
<path fill-rule="evenodd" clip-rule="evenodd" d="M12.9175 6.33398C9.28152 6.33398 6.33398 9.28152 6.33398 12.9175V27.0845C6.33398 30.7205 9.28152 33.668 12.9175 33.668H27.0845C30.7205 33.668 33.668 30.7205 33.668 27.0845V12.9175C33.668 9.28152 30.7205 6.33398 27.0845 6.33398H12.9175ZM5.33398 12.9175C5.33398 8.72924 8.72924 5.33398 12.9175 5.33398H27.0845C31.2728 5.33398 34.668 8.72924 34.668 12.9175V27.0845C34.668 31.2728 31.2728 34.668 27.0845 34.668H12.9175C8.72924 34.668 5.33398 31.2728 5.33398 27.0845V12.9175ZM20.8198 14.8284C19.7448 14.669 18.6469 14.8527 17.6823 15.3532C16.7176 15.8537 15.9354 16.6457 15.4468 17.6164C14.9582 18.5872 14.7881 19.6873 14.9608 20.7602C15.1334 21.8332 15.64 22.8244 16.4085 23.5929C17.1769 24.3613 18.1681 24.8679 19.2411 25.0406C20.3141 25.2132 21.4142 25.0431 22.3849 24.5545C23.3556 24.0659 24.1476 23.2837 24.6481 22.319C25.1487 21.3544 25.3323 20.2565 25.1729 19.1815C25.0103 18.0849 24.4993 17.0697 23.7155 16.2859C22.9316 15.502 21.9164 14.9911 20.8198 14.8284ZM17.2217 14.4656C18.3731 13.8682 19.6835 13.649 20.9665 13.8393C22.2753 14.0333 23.487 14.6432 24.4226 15.5788C25.3581 16.5143 25.968 17.726 26.1621 19.0348C26.3523 20.3179 26.1332 21.6283 25.5358 22.7796C24.9384 23.931 23.9931 24.8646 22.8345 25.4478C21.6759 26.0309 20.3629 26.2339 19.0822 26.0279C17.8016 25.8218 16.6186 25.2172 15.7014 24.3C14.7842 23.3828 14.1795 22.1997 13.9735 20.9191C13.7674 19.6385 13.9704 18.3255 14.5535 17.1668C15.1367 16.0082 16.0704 15.063 17.2217 14.4656ZM27.7925 11.7088C27.5164 11.7088 27.2925 11.9327 27.2925 12.2088C27.2925 12.4849 27.5164 12.7088 27.7925 12.7088H27.8068C28.0829 12.7088 28.3068 12.4849 28.3068 12.2088C28.3068 11.9327 28.0829 11.7088 27.8068 11.7088H27.7925Z" />
</svg>
