<svg width="60" height="60" viewBox="0 0 60 60" fill="none" xmlns="http://www.w3.org/2000/svg">
<path d="M30.4167 31.6673C37.5503 31.6673 43.3333 25.8843 43.3333 18.7506C43.3333 11.617 37.5503 5.83398 30.4167 5.83398C23.283 5.83398 17.5 11.617 17.5 18.7506C17.5 25.8843 23.283 31.6673 30.4167 31.6673Z" stroke="#0D36C9" stroke-width="1.88976" stroke-linecap="round" stroke-linejoin="round"/>
<path d="M6.66699 53.3317C7.38596 47.5816 10.1969 42.2905 14.5708 38.454C18.9448 34.6175 24.5802 32.5 30.4169 32.5C36.2538 32.5 41.8896 34.6177 46.2636 38.4545C50.6376 42.2914 53.4484 47.5829 54.167 53.3333" stroke="#0D36C9" stroke-width="1.88976" stroke-linecap="round" stroke-linejoin="round"/>
<path d="M41.4953 45.1212C41.7359 45.1285 41.9689 45.1705 42.1946 45.2473H42.2172C42.2324 45.2545 42.2439 45.2625 42.2515 45.2698C42.336 45.2969 42.4158 45.3275 42.4922 45.3695L42.6373 45.4344C42.6946 45.465 42.7634 45.5219 42.8015 45.5452C42.8397 45.5677 42.8818 45.591 42.9161 45.6174C43.3405 45.2931 43.8557 45.1174 44.3866 45.1212C44.6276 45.1212 44.8682 45.1552 45.097 45.232C46.5068 45.6903 47.0148 47.2372 46.5904 48.5893C46.3498 49.2802 45.9564 49.9108 45.4412 50.426C44.7036 51.1403 43.8943 51.7743 43.0231 52.3205L42.9276 52.3782L42.8283 52.3167C41.954 51.7743 41.1401 51.1403 40.3957 50.4222C39.8839 49.907 39.4901 49.2802 39.2456 48.5893C38.814 47.2372 39.322 45.6903 40.7471 45.224C40.8578 45.1858 40.972 45.159 41.0866 45.1441H41.1324C41.2398 45.1285 41.3463 45.1212 41.4533 45.1212H41.4953ZM44.8984 46.3282C44.7418 46.2743 44.57 46.3587 44.5127 46.5191C44.4592 46.6795 44.5432 46.8552 44.7036 46.9122C44.9485 47.0038 45.1123 47.2448 45.1123 47.5118V47.5236C45.1051 47.6111 45.1314 47.6955 45.1849 47.7605C45.2384 47.8254 45.3186 47.8632 45.4026 47.8712C45.5592 47.867 45.6929 47.7414 45.7043 47.5806V47.5351C45.7158 47 45.3915 46.5153 44.8984 46.3282Z" fill="#0D36C9"/>
</svg>
