<svg width="80" height="80" viewBox="0 0 80 80" fill="none" xmlns="http://www.w3.org/2000/svg">
<path d="M38.4022 74.6231C35.8023 70.7493 31.4625 66.606 27.2595 63.9847C23.0157 61.3375 18.9846 59.8673 14.408 59.2988C13.5056 59.1877 12.7575 59.0841 12.7455 59.0693C12.7338 59.0693 12.7572 47.1132 12.8038 32.5335L12.8808 6.02591L13.7141 6.12955C18.8304 6.77358 24.5408 9.22684 28.8615 12.6462C32.5851 15.5924 36.4302 20.1421 38.8817 24.5016L39.4986 25.5987V50.7782C39.4986 64.6265 39.4519 75.9548 39.3959 75.9526C39.3376 75.9504 38.8911 75.3515 38.4022 74.6231ZM42.6405 50.7146V25.4299L43.8319 23.4097C45.353 20.8306 48.4127 16.9449 50.4359 15.0239C55.8443 9.88716 61.711 6.98456 68.4462 6.11104L69.3007 6V32.5446V59.09L68.3095 59.2084C58.9311 60.3159 50.8006 65.2261 44.4411 73.6223L42.6405 76V50.7146ZM48.4511 74.2811C52.132 69.8987 57.0048 66.4165 61.8996 64.6687C64.461 63.7544 67.792 63.1163 70.0032 63.1163C71.1625 63.1163 71.8056 62.798 72.1683 62.0422C72.4413 61.4722 72.4442 61.2272 72.4448 39.7179L72.4453 17.9672L72.958 18.0857C73.2398 18.1597 74.0398 18.441 74.7353 18.7223L76 19.2331V46.3781C76 61.3078 75.9533 73.5231 75.8956 73.5231C75.8373 73.5231 74.9921 73.2936 74.0157 73.0123C70.1573 71.9093 66.9798 71.5303 62.8068 71.6731C57.745 71.8508 53.8112 72.7465 49.1348 74.7971L47.3575 75.5766L48.4511 74.2811ZM32.865 74.703C30.923 73.8206 27.7157 72.7806 25.5505 72.332C22.6066 71.7249 20.5755 71.5636 16.9673 71.6657C13.3823 71.7619 11.2138 72.0803 8.25558 72.9323C7.42841 73.1692 6.58246 73.4135 6.37567 73.4653L6 73.569L6.00064 46.3514L6.00134 19.1331L7.60721 18.5409C8.49037 18.2152 9.28995 17.9117 9.38393 17.8747C9.51984 17.8007 9.55484 22.2349 9.55484 39.6009C9.55484 63.3317 9.51401 62.0089 10.3119 62.6744C10.5896 62.9039 11.1665 63.0075 12.814 63.1334C19.3617 63.6071 25.5746 66.3972 30.6467 71.1446C31.7404 72.1684 34.3654 74.9799 34.5158 75.2886C34.6208 75.5033 34.5508 75.4811 32.8654 74.7112L32.865 74.703Z" fill="#0D36C9"/>
</svg>
