<svg width="80" height="80" viewBox="0 0 80 80" fill="none" xmlns="http://www.w3.org/2000/svg">
<g clip-path="url(#clip0_2485_5697)">
<path d="M22.1731 11.3391C22.1731 14.5758 19.5379 17.201 16.2961 17.201C13.0514 17.201 10.4182 14.5758 10.4182 11.3391C10.4182 8.10133 13.0454 5.47212 16.2961 5.47212C19.5379 5.47212 22.1731 8.09731 22.1731 11.3391ZM16.9127 51.5136L18.184 73.1639C18.184 73.9193 18.7956 74.5439 19.5539 74.5439C20.3163 74.5439 20.9339 73.9193 20.9339 73.1639L22.1077 51.5136H25.9358L21.98 27.2431L29.948 43.113C30.2397 43.811 31.0443 44.1439 31.7504 43.8522C32.4484 43.5505 32.7793 42.7529 32.4846 42.0418C32.4846 42.0418 26.6459 26.2504 25.2016 23.3083C23.7562 20.3623 22.337 18.5709 16.8554 18.5709H15.7359C10.2663 18.5709 8.83203 20.3573 7.39976 23.3083C5.95944 26.2504 0.113678 42.0418 0.113678 42.0418C-0.191082 42.7529 0.139829 43.5505 0.832831 43.8522C1.53891 44.149 2.34255 43.811 2.64832 43.113L10.6163 27.2431L6.65345 51.5136H10.4765L11.6664 73.1639C11.6664 73.9193 12.286 74.5439 13.0363 74.5439C13.8148 74.5439 14.4294 73.9193 14.4294 73.1639L15.6112 51.5136H16.9127ZM63.7009 5.45703C60.4562 5.45703 57.8159 8.08122 57.8159 11.324C57.8159 14.5657 60.4501 17.1909 63.7009 17.1909C66.9305 17.1909 69.5597 14.5657 69.5597 11.324C69.5597 8.08122 66.9346 5.45703 63.7009 5.45703ZM69.783 39.9899L70.1743 27.228L77.3407 43.1029C77.6434 43.8009 78.4511 44.1339 79.1481 43.8321C79.8612 43.5294 80.1841 42.7328 79.8924 42.0217C79.8924 42.0217 74.8453 26.2303 73.4039 23.2902C71.9566 20.3472 69.7317 18.5609 64.2571 18.5609H63.1326C57.664 18.5609 55.4352 20.3472 53.9868 23.2902C52.5545 26.2303 47.5114 42.0217 47.5114 42.0217C47.2117 42.7328 47.5365 43.5294 48.2376 43.8321C48.9407 44.1399 49.7533 43.8009 50.035 43.1029L57.2175 27.228L57.6027 39.9899L56.4732 72.0756C56.3947 73.3409 57.3472 74.4443 58.6085 74.5328C58.6708 74.5439 58.7272 74.5439 58.7744 74.5439C59.9774 74.5439 60.9933 73.6165 61.0868 72.3974L63.6858 45.9755L66.316 72.3974C66.3884 73.6215 67.4093 74.5439 68.6022 74.5439C68.6595 74.5439 68.7108 74.5439 68.7682 74.5328C70.0395 74.4443 70.987 73.3399 70.9035 72.0756L69.7679 39.9899H69.783ZM39.996 41.1255C38.0015 41.1255 36.3841 42.7328 36.3841 44.7162C36.3841 46.7068 38.0015 48.3151 39.996 48.3151C41.9855 48.3151 43.5998 46.7058 43.5998 44.7162C43.5998 42.7318 41.9855 41.1255 39.996 41.1255ZM39.996 62.3262C39.996 62.3262 41.6184 73.5803 41.6184 73.5904C41.8427 74.1486 42.3576 74.5439 42.9883 74.5439C43.634 74.5439 44.1782 74.1114 44.3733 73.528C44.3843 73.4918 44.4226 72.8249 44.3843 72.7153L43.7175 58.8822L43.9307 54.1267C44.1188 52.5124 44.155 52.9962 45.9906 51.8968C47.8735 50.7723 51.0559 45.8186 51.2118 45.5792C51.3626 45.3298 51.6543 44.9023 51.7117 44.6217C51.8002 44.1218 51.4773 43.6531 50.9875 43.5485C50.6123 43.4861 50.2955 43.6833 50.0501 43.9448C49.8046 44.2153 46.1324 49.1006 43.3806 49.5693C42.764 49.4808 42.0971 49.1529 40.342 49.1529H39.649C37.9039 49.1529 37.2381 49.4859 36.6145 49.5693C33.8565 49.1006 30.1823 44.2153 29.9248 43.9448C29.6905 43.6833 29.3857 43.4861 29.0025 43.5485C28.5127 43.6531 28.1828 44.1218 28.2844 44.6217C28.3367 44.9023 28.6253 45.3298 28.7843 45.5792C28.9432 45.8186 32.1376 50.7723 34.0054 51.8968C35.847 52.9962 35.8883 52.5114 36.0653 54.1267L36.2715 58.8822L35.6107 72.7153C35.5735 72.8289 35.6107 73.4958 35.6388 73.528C35.8289 74.1114 36.363 74.5439 37.0138 74.5439C37.6334 74.5439 38.1644 74.1476 38.3726 73.5904C38.3676 73.5803 39.996 62.3262 39.996 62.3262Z" fill="#0D36C9"/>
</g>
<defs>
<clipPath id="clip0_2485_5697">
<rect width="80" height="80" fill="white"/>
</clipPath>
</defs>
</svg>
