<svg width="80" height="80" viewBox="0 0 80 80" fill="none" xmlns="http://www.w3.org/2000/svg">
<path d="M72.4211 29.6562C69.7536 29.6562 67.5879 31.5136 67.5879 33.7941C67.5879 36.0739 69.7536 37.9319 72.4211 37.9319C75.0783 37.9319 77.2432 36.0739 77.2432 33.7941C77.2432 31.5136 75.0783 29.6562 72.4211 29.6562Z" fill="#0D36C9"/>
<path d="M7.59154 29.6562C4.92428 29.6562 2.75879 31.5136 2.75879 33.7941C2.75879 36.0739 4.92428 37.9319 7.59154 37.9319C10.2486 37.9319 12.4141 36.0739 12.4141 33.7941C12.4141 31.5136 10.2486 29.6562 7.59154 29.6562Z" fill="#0D36C9"/>
<path d="M59.3054 22.4141C55.5003 22.4141 52.4141 25.2003 52.4141 28.6252C52.4141 32.0457 55.5003 34.8275 59.3054 34.8275C63.1112 34.8275 66.2073 32.0457 66.2073 28.6252C66.2065 25.2003 63.1112 22.4141 59.3054 22.4141Z" fill="#0D36C9"/>
<path d="M80 59.6547H72.2274V46.5009C72.2274 44.2369 71.5051 42.1389 70.3447 40.3142C71.0281 40.1303 71.7302 40 72.4711 40C76.6161 40 80 43.1112 80 46.9312V59.6547Z" fill="#0D36C9"/>
<path d="M20.6959 22.4141C16.89 22.4141 13.7939 25.2003 13.7939 28.6252C13.7939 32.0457 16.8892 34.8275 20.6959 34.8275C24.4919 34.8275 27.5872 32.0457 27.5872 28.6252C27.5872 25.2003 24.4919 22.4141 20.6959 22.4141Z" fill="#0D36C9"/>
<path d="M7.53926 40C8.28023 40 8.97342 40.1303 9.65528 40.3142C8.48511 42.1389 7.77329 44.2369 7.77329 46.5009V59.6547H0V46.9312C0 43.112 3.38416 40 7.53926 40Z" fill="#0D36C9"/>
<path d="M39.9955 10C34.6754 10 30.3449 14.1757 30.3449 19.3056C30.3449 24.44 34.6754 28.6202 39.9955 28.6202C45.3156 28.6202 49.6554 24.44 49.6554 19.3056C49.6554 14.1757 45.3156 10 39.9955 10Z" fill="#0D36C9"/>
<path d="M70.346 64.8287H58.5939V44.918C58.5939 42.1796 57.8139 39.6324 56.5527 37.3488C57.5158 37.0858 58.5267 36.8984 59.5849 36.8984C65.5141 36.8984 70.346 41.3723 70.346 46.872V64.8287Z" fill="#0D36C9"/>
<path d="M21.4074 44.9183V64.8287H9.65527V46.8714C9.65527 41.372 14.4812 36.8984 20.4245 36.8984C21.4834 36.8984 22.4856 37.0858 23.4485 37.3488C22.188 39.633 21.4074 42.1793 21.4074 44.9183Z" fill="#0D36C9"/>
<path d="M24.8281 69.9988H55.1733V44.8583C55.1733 37.0446 48.3625 30.6895 40.0007 30.6895C31.6288 30.6895 24.8281 37.0446 24.8281 44.8583V69.9988Z" fill="#0D36C9"/>
</svg>
