<svg width="80" height="80" viewBox="0 0 80 80" fill="none" xmlns="http://www.w3.org/2000/svg">
<path d="M27.8546 16.7043L31.5469 19.3869C31.9703 19.6946 32.2854 20.1284 32.4471 20.6262C32.6087 21.124 32.6087 21.6601 32.4469 22.1579L31.0375 26.4986C30.8758 26.9964 30.8759 27.5325 31.0376 28.0302C31.1994 28.528 31.5146 28.9617 31.9379 29.2693C32.3613 29.5769 32.8712 29.7426 33.3946 29.7426C33.9179 29.7426 34.4278 29.577 34.8513 29.2694L38.5439 26.5868C38.9672 26.2791 39.4772 26.1134 40.0005 26.1134C40.5238 26.1134 41.0338 26.2791 41.4571 26.5868L45.1498 29.2694C45.5732 29.577 46.0831 29.7426 46.6064 29.7426C47.1298 29.7426 47.6397 29.5769 48.0631 29.2693C48.4865 28.9617 48.8016 28.528 48.9634 28.0302C49.1251 27.5325 49.1252 26.9964 48.9635 26.4986L47.5525 22.1579C47.3907 21.6601 47.3907 21.124 47.5524 20.6262C47.714 20.1284 48.0291 19.6946 48.4525 19.3869L52.1449 16.7043C52.5683 16.3966 52.8834 15.9628 53.0452 15.4651C53.2069 14.9673 53.2069 14.4311 53.0451 13.9333C52.8834 13.4356 52.5682 13.0018 52.1448 12.6942C51.7213 12.3866 51.2114 12.2209 50.688 12.2209H46.125C45.6016 12.2208 45.0917 12.0551 44.6683 11.7475C44.2449 11.4399 43.9297 11.0061 43.7679 10.5084L42.3571 6.16764C42.1954 5.66987 41.8803 5.23607 41.4569 4.92842C41.0334 4.62078 40.5235 4.45508 40.0001 4.45508C39.4767 4.45508 38.9668 4.62078 38.5434 4.92842C38.12 5.23607 37.8048 5.66987 37.6431 6.16764L36.2326 10.5084C36.0708 11.0062 35.7556 11.44 35.332 11.7477C34.9085 12.0553 34.3985 12.221 33.875 12.2209H29.3115C28.7881 12.2209 28.2782 12.3866 27.8547 12.6942C27.4313 13.0018 27.1161 13.4356 26.9544 13.9333C26.7926 14.4311 26.7926 14.9673 26.9543 15.4651C27.1161 15.9628 27.4312 16.3966 27.8546 16.7043Z" fill="#0D36C9"/>
<path d="M46.7984 55.1731C46.5348 55.0597 46.3103 54.8716 46.1525 54.632C45.9948 54.3923 45.9108 54.1117 45.9109 53.8248C45.909 53.6198 45.9493 53.4166 46.0292 53.2279C46.1092 53.0391 46.2271 52.8687 46.3756 52.7274C46.4663 52.6411 46.553 52.556 46.618 52.4875C47.0776 52.0035 47.4832 51.4709 47.8274 50.8991C48.7327 49.3882 49.1815 47.6477 49.1196 45.8874C49.0577 44.1271 48.4877 42.4224 47.4785 40.9789C46.4692 39.5354 45.0638 38.4147 43.4318 37.7522C41.7998 37.0897 40.011 36.9136 38.2811 37.2452C36.5183 37.5539 34.8892 38.3858 33.6056 39.6328C32.3219 40.8798 31.4432 42.4842 31.0836 44.2373C30.7513 45.7469 30.8078 47.3161 31.248 48.7978C31.6881 50.2794 32.4974 51.625 33.6 52.7083C33.7496 52.8502 33.8693 53.0205 33.9522 53.2092C34.0351 53.3979 34.0795 53.6013 34.0828 53.8075V53.8151C34.0854 54.1043 34.0026 54.3879 33.8447 54.6303C33.6868 54.8727 33.4609 55.0631 33.1953 55.1776C29.5591 56.6838 26.6595 59.5571 25.1203 63.1793C24.0381 65.66 23.4953 68.3422 23.5278 71.0485V72.9985C23.5278 73.4166 23.6101 73.8307 23.7702 74.217C23.9303 74.6034 24.1649 74.9544 24.4606 75.2501C24.7563 75.5457 25.1074 75.7802 25.4938 75.9401C25.8802 76.1001 26.2943 76.1823 26.7125 76.1822H53.2888C54.133 76.1821 54.9427 75.8467 55.5397 75.2497C56.1366 74.6527 56.472 73.843 56.472 72.9987V71.0291C56.5043 68.3239 55.9606 65.6429 54.8769 63.1641C53.3348 59.545 50.434 56.6757 46.7984 55.1731Z" fill="#0D36C9"/>
<path d="M76.1026 58.767C74.5608 55.1481 71.6603 52.2788 68.025 50.7762C67.7615 50.6627 67.5371 50.4746 67.3793 50.2349C67.2216 49.9953 67.1375 49.7148 67.1375 49.4279C67.1357 49.2229 67.176 49.0197 67.256 48.8309C67.3359 48.6421 67.4538 48.4717 67.6024 48.3304C67.693 48.2439 67.78 48.1589 67.8446 48.0903C68.3044 47.6067 68.7099 47.0744 69.0541 46.5028C69.9596 44.992 70.4085 43.2514 70.3467 41.4911C70.2848 39.7308 69.7149 38.026 68.7057 36.5824C67.6964 35.1389 66.291 34.0182 64.6589 33.3557C63.0269 32.6932 61.238 32.5171 59.5081 32.8488C57.7453 33.1574 56.1161 33.9892 54.8324 35.2363C53.5488 36.4833 52.6701 38.0877 52.3106 39.8409C51.9782 41.3504 52.0348 42.9196 52.4749 44.4013C52.915 45.883 53.7242 47.2286 54.8267 48.3119C54.9764 48.4537 55.0962 48.6239 55.1791 48.8127C55.262 49.0014 55.3063 49.2048 55.3095 49.4109V49.4188C55.3123 49.7081 55.2295 49.9917 55.0716 50.2341C54.9137 50.4765 54.6877 50.6669 54.422 50.7813C52.9698 51.3761 51.6216 52.1984 50.4279 53.2172C53.777 55.2029 56.4109 58.1987 57.9514 61.7745C59.2369 64.6892 59.8831 67.8454 59.8465 71.0308V71.7862H74.5145C75.3588 71.7862 76.1685 71.4508 76.7655 70.8538C77.3625 70.2569 77.6979 69.4472 77.698 68.6029V66.6322C77.7304 63.9269 77.1865 61.2458 76.1026 58.767Z" fill="#0D36C9"/>
<path d="M29.575 53.2163C28.379 52.1951 27.0275 51.3713 25.5717 50.7762C25.3083 50.6627 25.0838 50.4746 24.9261 50.235C24.7683 49.9954 24.6843 49.7148 24.6842 49.4279C24.6824 49.2229 24.7228 49.0197 24.8028 48.8309C24.8828 48.6421 25.0008 48.4717 25.1494 48.3304C25.2396 48.2439 25.3266 48.1589 25.3916 48.0903C25.8512 47.6067 26.2566 47.0743 26.6007 46.5028C27.5063 44.992 27.9552 43.2514 27.8934 41.4911C27.8316 39.7308 27.2617 38.026 26.2525 36.5824C25.2432 35.1388 23.8378 34.0182 22.2057 33.3557C20.5737 32.6932 18.7848 32.5171 17.0549 32.8488C15.292 33.1574 13.6629 33.9893 12.3792 35.2364C11.0955 36.4834 10.2168 38.0878 9.85725 39.8409C9.52497 41.3504 9.58155 42.9196 10.0217 44.4013C10.4618 45.883 11.271 47.2286 12.3735 48.3119C12.5232 48.4537 12.643 48.6239 12.7259 48.8127C12.8088 49.0014 12.8531 49.2048 12.8562 49.4109V49.4188C12.859 49.7081 12.7762 49.9917 12.6183 50.2341C12.4604 50.4765 12.2344 50.6669 11.9687 50.7813C8.33268 52.2875 5.43308 55.1608 3.89375 58.7829C2.81158 61.2636 2.26868 63.9458 2.301 66.6521V68.6029C2.30098 69.021 2.38331 69.4349 2.54328 69.8211C2.70324 70.2073 2.93772 70.5583 3.23332 70.8539C3.52891 71.1495 3.87984 71.3839 4.26605 71.5439C4.65227 71.7039 5.06621 71.7862 5.48425 71.7862H20.1535V71.0496C20.117 67.8643 20.7617 64.7081 22.0444 61.7923C23.5836 58.2086 26.2204 55.2059 29.575 53.2163Z" fill="#0D36C9"/>
</svg>
